<?xml version="1.0" encoding="UTF-8" standalone="no"?>
<!DOCTYPE svg PUBLIC "-//W3C//DTD SVG 1.1//EN"
 "http://www.w3.org/Graphics/SVG/1.1/DTD/svg11.dtd">
<!-- Generated by graphviz version 14.1.3 (20260303.0454)
 -->
<!-- Title: mailservice&#45;container&#45;view Pages: 1 -->
<svg width="1261pt" height="1213pt"
 viewBox="0.00 0.00 1261.00 1213.00" xmlns="http://www.w3.org/2000/svg" xmlns:xlink="http://www.w3.org/1999/xlink">
<g id="graph0" class="graph" transform="scale(1 1) rotate(0) translate(36 1176.7)">
<title>mailservice&#45;container&#45;view</title>
<polygon fill="#ffffff" stroke="none" points="-36,36 -36,-1176.7 1225,-1176.7 1225,36 -36,36"/>
<text xml:space="preserve" text-anchor="middle" x="594.5" y="-5.7" font-family="Sans-Serif" font-size="14.00" fill="#2d3436">mailservice&#45;container&#45;view</text>
<g id="clust1" class="cluster">
<title>cluster_Core</title>
<path fill="#e5f5fd" stroke="#aeb6be" d="M20,-253.6C20,-253.6 112,-253.6 112,-253.6 118,-253.6 124,-259.6 124,-265.6 124,-265.6 124,-695.8 124,-695.8 124,-701.8 118,-707.8 112,-707.8 112,-707.8 20,-707.8 20,-707.8 14,-707.8 8,-701.8 8,-695.8 8,-695.8 8,-265.6 8,-265.6 8,-259.6 14,-253.6 20,-253.6"/>
<text xml:space="preserve" text-anchor="middle" x="29.12" y="-692.4" font-family="Sans-Serif" font-size="12.00" fill="#2d3436">Core</text>
</g>
<g id="clust2" class="cluster">
<title>cluster_Adapters</title>
<path fill="#e5f5fd" stroke="#aeb6be" d="M171,-253.6C171,-253.6 1169,-253.6 1169,-253.6 1175,-253.6 1181,-259.6 1181,-265.6 1181,-265.6 1181,-443.95 1181,-443.95 1181,-449.95 1175,-455.95 1169,-455.95 1169,-455.95 171,-455.95 171,-455.95 165,-455.95 159,-449.95 159,-443.95 159,-443.95 159,-265.6 159,-265.6 159,-259.6 165,-253.6 171,-253.6"/>
<text xml:space="preserve" text-anchor="middle" x="191" y="-440.55" font-family="Sans-Serif" font-size="12.00" fill="#2d3436">Adapters</text>
</g>
<!-- addf205d6e5346d6a932589dd86f2cab -->
<g id="node1" class="node">
<title>addf205d6e5346d6a932589dd86f2cab</title>
<image xlink:href="/Users/oldroot/.agents/skills/architecture-diagrams/.venv/lib/python3.14/site-packages/resources/onprem/client/user.png" width="100.8px" height="100.8px" preserveAspectRatio="xMinYMin meet" x="15.6" y="-1122.7"/>
<text xml:space="preserve" text-anchor="middle" x="66" y="-1005.05" font-family="Sans-Serif" font-size="13.00" fill="#2d3436">Agent / API client</text>
</g>
<!-- 91dcc63a97eb4787aeaa31b0a1372148 -->
<g id="node2" class="node">
<title>91dcc63a97eb4787aeaa31b0a1372148</title>
<image xlink:href="/Users/oldroot/.agents/skills/architecture-diagrams/.venv/lib/python3.14/site-packages/resources/generic/network/router.png" width="100.8px" height="100.8px" preserveAspectRatio="xMinYMin meet" x="15.6" y="-886"/>
<text xml:space="preserve" text-anchor="middle" x="66" y="-767.45" font-family="Sans-Serif" font-size="13.00" fill="#2d3436">HTTP API</text>
<text xml:space="preserve" text-anchor="middle" x="66" y="-753.95" font-family="Sans-Serif" font-size="13.00" fill="#2d3436">internal/adapters/httpapi</text>
</g>
<!-- addf205d6e5346d6a932589dd86f2cab&#45;&gt;91dcc63a97eb4787aeaa31b0a1372148 -->
<g id="edge1" class="edge">
<title>addf205d6e5346d6a932589dd86f2cab&#45;&gt;91dcc63a97eb4787aeaa31b0a1372148</title>
<path fill="none" stroke="#7b8894" d="M66,-1004.04C66,-980.79 66,-954.3 66,-929.36"/>
<polygon fill="#7b8894" stroke="#7b8894" points="69.5,-929.54 66,-919.54 62.5,-929.54 69.5,-929.54"/>
<text xml:space="preserve" text-anchor="middle" x="102.75" y="-955.55" font-family="Sans-Serif" font-size="13.00" fill="#2d3436">HTTP JSON</text>
</g>
<!-- 0ab60ee4885a42a89c704bb29cce2d35 -->
<g id="node3" class="node">
<title>0ab60ee4885a42a89c704bb29cce2d35</title>
<image xlink:href="/Users/oldroot/.agents/skills/architecture-diagrams/.venv/lib/python3.14/site-packages/resources/generic/compute/rack.png" width="100.8px" height="100.8px" preserveAspectRatio="xMinYMin meet" x="15.6" y="-646.65"/>
<text xml:space="preserve" text-anchor="middle" x="66" y="-528.1" font-family="Sans-Serif" font-size="13.00" fill="#2d3436">Core services</text>
<text xml:space="preserve" text-anchor="middle" x="66" y="-514.6" font-family="Sans-Serif" font-size="13.00" fill="#2d3436">internal/core/service</text>
</g>
<!-- 91dcc63a97eb4787aeaa31b0a1372148&#45;&gt;0ab60ee4885a42a89c704bb29cce2d35 -->
<g id="edge2" class="edge">
<title>91dcc63a97eb4787aeaa31b0a1372148&#45;&gt;0ab60ee4885a42a89c704bb29cce2d35</title>
<path fill="none" stroke="#7b8894" d="M66,-752.92C66,-732.66 66,-710.82 66,-690.07"/>
<polygon fill="#7b8894" stroke="#7b8894" points="69.5,-690.19 66,-680.19 62.5,-690.19 69.5,-690.19"/>
</g>
<!-- e11068ad4308413a964614b4df281874 -->
<g id="node4" class="node">
<title>e11068ad4308413a964614b4df281874</title>
<image xlink:href="/Users/oldroot/.agents/skills/architecture-diagrams/.venv/lib/python3.14/site-packages/resources/generic/compute/rack.png" width="100.8px" height="100.8px" preserveAspectRatio="xMinYMin meet" x="15.6" y="-394.8"/>
<text xml:space="preserve" text-anchor="middle" x="66" y="-276.25" font-family="Sans-Serif" font-size="13.00" fill="#2d3436">Domain + ports</text>
<text xml:space="preserve" text-anchor="middle" x="66" y="-262.75" font-family="Sans-Serif" font-size="13.00" fill="#2d3436">internal/domain + internal/core/ports</text>
</g>
<!-- 0ab60ee4885a42a89c704bb29cce2d35&#45;&gt;e11068ad4308413a964614b4df281874 -->
<g id="edge3" class="edge">
<title>0ab60ee4885a42a89c704bb29cce2d35&#45;&gt;e11068ad4308413a964614b4df281874</title>
<path fill="none" stroke="#7b8894" d="M66,-513.79C66,-489.7 66,-463.16 66,-438.41"/>
<polygon fill="#7b8894" stroke="#7b8894" points="69.5,-438.69 66,-428.69 62.5,-438.69 69.5,-438.69"/>
</g>
<!-- f497968c9844426086d110984775871f -->
<g id="node5" class="node">
<title>f497968c9844426086d110984775871f</title>
<image xlink:href="/Users/oldroot/.agents/skills/architecture-diagrams/.venv/lib/python3.14/site-packages/resources/generic/compute/rack.png" width="100.8px" height="100.8px" preserveAspectRatio="xMinYMin meet" x="166.6" y="-394.8"/>
<text xml:space="preserve" text-anchor="middle" x="217" y="-276.25" font-family="Sans-Serif" font-size="13.00" fill="#2d3436">Repositories</text>
<text xml:space="preserve" text-anchor="middle" x="217" y="-262.75" font-family="Sans-Serif" font-size="13.00" fill="#2d3436">internal/adapters/repository</text>
</g>
<!-- 0ab60ee4885a42a89c704bb29cce2d35&#45;&gt;f497968c9844426086d110984775871f -->
<g id="edge4" class="edge">
<title>0ab60ee4885a42a89c704bb29cce2d35&#45;&gt;f497968c9844426086d110984775871f</title>
<path fill="none" stroke="#7b8894" d="M115.23,-513.79C130.12,-489.16 146.55,-461.97 161.8,-436.74"/>
<polygon fill="#7b8894" stroke="#7b8894" points="164.61,-438.85 166.79,-428.48 158.62,-435.22 164.61,-438.85"/>
<text xml:space="preserve" text-anchor="middle" x="161" y="-465.1" font-family="Sans-Serif" font-size="13.00" fill="#2d3436">CRUD</text>
</g>
<!-- a206d61bbb1a46af9c3fe0eb16dba4e8 -->
<g id="node6" class="node">
<title>a206d61bbb1a46af9c3fe0eb16dba4e8</title>
<image xlink:href="/Users/oldroot/.agents/skills/architecture-diagrams/.venv/lib/python3.14/site-packages/resources/generic/compute/rack.png" width="100.8px" height="100.8px" preserveAspectRatio="xMinYMin meet" x="317.6" y="-394.8"/>
<text xml:space="preserve" text-anchor="middle" x="368" y="-276.25" font-family="Sans-Serif" font-size="13.00" fill="#2d3436">Identity</text>
<text xml:space="preserve" text-anchor="middle" x="368" y="-262.75" font-family="Sans-Serif" font-size="13.00" fill="#2d3436">internal/adapters/identity/edproof</text>
</g>
<!-- 0ab60ee4885a42a89c704bb29cce2d35&#45;&gt;a206d61bbb1a46af9c3fe0eb16dba4e8 -->
<g id="edge6" class="edge">
<title>0ab60ee4885a42a89c704bb29cce2d35&#45;&gt;a206d61bbb1a46af9c3fe0eb16dba4e8</title>
<path fill="none" stroke="#7b8894" d="M116.34,-562.24C158.56,-534.95 220.71,-495.68 276.5,-463.95 283.24,-460.12 286.18,-461.08 292,-455.95 298.91,-449.86 305.49,-443.02 311.69,-435.8"/>
<polygon fill="#7b8894" stroke="#7b8894" points="314.18,-438.28 317.83,-428.34 308.77,-433.84 314.18,-438.28"/>
<text xml:space="preserve" text-anchor="middle" x="322.25" y="-465.1" font-family="Sans-Serif" font-size="13.00" fill="#2d3436">verify key proof</text>
</g>
<!-- 5f54a87ed8744bb680c8c0fb978e4000 -->
<g id="node7" class="node">
<title>5f54a87ed8744bb680c8c0fb978e4000</title>
<image xlink:href="/Users/oldroot/.agents/skills/architecture-diagrams/.venv/lib/python3.14/site-packages/resources/generic/compute/rack.png" width="100.8px" height="100.8px" preserveAspectRatio="xMinYMin meet" x="468.6" y="-394.8"/>
<text xml:space="preserve" text-anchor="middle" x="519" y="-276.25" font-family="Sans-Serif" font-size="13.00" fill="#2d3436">Payments</text>
<text xml:space="preserve" text-anchor="middle" x="519" y="-262.75" font-family="Sans-Serif" font-size="13.00" fill="#2d3436">internal/adapters/payment</text>
</g>
<!-- 0ab60ee4885a42a89c704bb29cce2d35&#45;&gt;5f54a87ed8744bb680c8c0fb978e4000 -->
<g id="edge7" class="edge">
<title>0ab60ee4885a42a89c704bb29cce2d35&#45;&gt;5f54a87ed8744bb680c8c0fb978e4000</title>
<path fill="none" stroke="#7b8894" d="M116.2,-577.61C215.69,-542.53 429.51,-466.45 443,-455.95 450.69,-449.96 457.9,-442.98 464.58,-435.48"/>
<polygon fill="#7b8894" stroke="#7b8894" points="466.85,-438.22 470.64,-428.33 461.51,-433.7 466.85,-438.22"/>
<text xml:space="preserve" text-anchor="middle" x="490.23" y="-465.1" font-family="Sans-Serif" font-size="13.00" fill="#2d3436">create + verify session</text>
</g>
<!-- 129d61d2db8043308d78d23deffdb8b5 -->
<g id="node8" class="node">
<title>129d61d2db8043308d78d23deffdb8b5</title>
<image xlink:href="/Users/oldroot/.agents/skills/architecture-diagrams/.venv/lib/python3.14/site-packages/resources/generic/compute/rack.png" width="100.8px" height="100.8px" preserveAspectRatio="xMinYMin meet" x="619.6" y="-394.8"/>
<text xml:space="preserve" text-anchor="middle" x="670" y="-276.25" font-family="Sans-Serif" font-size="13.00" fill="#2d3436">Notifier</text>
<text xml:space="preserve" text-anchor="middle" x="670" y="-262.75" font-family="Sans-Serif" font-size="13.00" fill="#2d3436">internal/adapters/notify</text>
</g>
<!-- 0ab60ee4885a42a89c704bb29cce2d35&#45;&gt;129d61d2db8043308d78d23deffdb8b5 -->
<g id="edge8" class="edge">
<title>0ab60ee4885a42a89c704bb29cce2d35&#45;&gt;129d61d2db8043308d78d23deffdb8b5</title>
<path fill="none" stroke="#7b8894" d="M116.17,-591.44C209.84,-582.65 415.68,-555.36 569,-477.45 588.06,-467.76 604.55,-452.62 618.36,-436"/>
<polygon fill="#7b8894" stroke="#7b8894" points="620.93,-438.39 624.39,-428.38 615.44,-434.04 620.93,-438.39"/>
<text xml:space="preserve" text-anchor="middle" x="620.08" y="-465.1" font-family="Sans-Serif" font-size="13.00" fill="#2d3436">send email</text>
</g>
<!-- ad687ca504ce49238ee88799429edfdc -->
<g id="node9" class="node">
<title>ad687ca504ce49238ee88799429edfdc</title>
<image xlink:href="/Users/oldroot/.agents/skills/architecture-diagrams/.venv/lib/python3.14/site-packages/resources/generic/compute/rack.png" width="100.8px" height="100.8px" preserveAspectRatio="xMinYMin meet" x="770.6" y="-394.8"/>
<text xml:space="preserve" text-anchor="middle" x="821" y="-276.25" font-family="Sans-Serif" font-size="13.00" fill="#2d3436">Mail runtime provisioner</text>
<text xml:space="preserve" text-anchor="middle" x="821" y="-262.75" font-family="Sans-Serif" font-size="13.00" fill="#2d3436">internal/adapters/repository</text>
</g>
<!-- 0ab60ee4885a42a89c704bb29cce2d35&#45;&gt;ad687ca504ce49238ee88799429edfdc -->
<g id="edge9" class="edge">
<title>0ab60ee4885a42a89c704bb29cce2d35&#45;&gt;ad687ca504ce49238ee88799429edfdc</title>
<path fill="none" stroke="#7b8894" d="M116.36,-590.16C255.62,-575.29 642.34,-528.31 745,-455.95 753.25,-450.14 760.88,-443.12 767.87,-435.48"/>
<polygon fill="#7b8894" stroke="#7b8894" points="770.34,-437.98 774.22,-428.12 765.04,-433.41 770.34,-437.98"/>
<text xml:space="preserve" text-anchor="middle" x="804.03" y="-465.1" font-family="Sans-Serif" font-size="13.00" fill="#2d3436">provision mailbox records</text>
</g>
<!-- 0dfbe6b363af46c7aeddbbd1144e3c00 -->
<g id="node10" class="node">
<title>0dfbe6b363af46c7aeddbbd1144e3c00</title>
<image xlink:href="/Users/oldroot/.agents/skills/architecture-diagrams/.venv/lib/python3.14/site-packages/resources/generic/compute/rack.png" width="100.8px" height="100.8px" preserveAspectRatio="xMinYMin meet" x="921.6" y="-394.8"/>
<text xml:space="preserve" text-anchor="middle" x="972" y="-276.25" font-family="Sans-Serif" font-size="13.00" fill="#2d3436">IMAP reader</text>
<text xml:space="preserve" text-anchor="middle" x="972" y="-262.75" font-family="Sans-Serif" font-size="13.00" fill="#2d3436">internal/adapters/imap</text>
</g>
<!-- 0ab60ee4885a42a89c704bb29cce2d35&#45;&gt;0dfbe6b363af46c7aeddbbd1144e3c00 -->
<g id="edge11" class="edge">
<title>0ab60ee4885a42a89c704bb29cce2d35&#45;&gt;0dfbe6b363af46c7aeddbbd1144e3c00</title>
<path fill="none" stroke="#7b8894" d="M116.35,-593.63C275.23,-587.66 763.06,-562.64 892,-477.45 907.8,-467.01 920.97,-452.28 931.76,-436.42"/>
<polygon fill="#7b8894" stroke="#7b8894" points="934.55,-438.55 937.02,-428.25 928.66,-434.76 934.55,-438.55"/>
<text xml:space="preserve" text-anchor="middle" x="964.03" y="-465.1" font-family="Sans-Serif" font-size="13.00" fill="#2d3436">list/read messages</text>
</g>
<!-- 203ef969a3de4010bc6a2611afa04a12 -->
<g id="node11" class="node">
<title>203ef969a3de4010bc6a2611afa04a12</title>
<image xlink:href="/Users/oldroot/.agents/skills/architecture-diagrams/.venv/lib/python3.14/site-packages/resources/generic/compute/rack.png" width="100.8px" height="100.8px" preserveAspectRatio="xMinYMin meet" x="1072.6" y="-394.8"/>
<text xml:space="preserve" text-anchor="middle" x="1123" y="-276.25" font-family="Sans-Serif" font-size="13.00" fill="#2d3436">Token generator</text>
<text xml:space="preserve" text-anchor="middle" x="1123" y="-262.75" font-family="Sans-Serif" font-size="13.00" fill="#2d3436">internal/adapters/token</text>
</g>
<!-- 0ab60ee4885a42a89c704bb29cce2d35&#45;&gt;203ef969a3de4010bc6a2611afa04a12 -->
<g id="edge12" class="edge">
<title>0ab60ee4885a42a89c704bb29cce2d35&#45;&gt;203ef969a3de4010bc6a2611afa04a12</title>
<path fill="none" stroke="#7b8894" d="M116.4,-594.44C292.07,-590.81 875.18,-571.77 1032,-477.45 1049.11,-467.16 1063.78,-452.27 1076.02,-436.17"/>
<polygon fill="#7b8894" stroke="#7b8894" points="1078.66,-438.49 1081.69,-428.34 1072.99,-434.39 1078.66,-438.49"/>
<text xml:space="preserve" text-anchor="middle" x="1083.52" y="-465.1" font-family="Sans-Serif" font-size="13.00" fill="#2d3436">mint tokens</text>
</g>
<!-- 0777d0a293a2419db1758d1d3f12391a -->
<g id="node12" class="node">
<title>0777d0a293a2419db1758d1d3f12391a</title>
<image xlink:href="/Users/oldroot/.agents/skills/architecture-diagrams/.venv/lib/python3.14/site-packages/resources/generic/database/sql.png" width="100.8px" height="100.8px" preserveAspectRatio="xMinYMin meet" x="166.6" y="-156.2"/>
<text xml:space="preserve" text-anchor="middle" x="217" y="-37.65" font-family="Sans-Serif" font-size="13.00" fill="#2d3436">App DB</text>
<text xml:space="preserve" text-anchor="middle" x="217" y="-24.15" font-family="Sans-Serif" font-size="13.00" fill="#2d3436">SQLite or Turso</text>
</g>
<!-- f497968c9844426086d110984775871f&#45;&gt;0777d0a293a2419db1758d1d3f12391a -->
<g id="edge5" class="edge">
<title>f497968c9844426086d110984775871f&#45;&gt;0777d0a293a2419db1758d1d3f12391a</title>
<path fill="none" stroke="#7b8894" d="M217,-261.64C217,-241.79 217,-220.41 217,-200.07"/>
<polygon fill="#7b8894" stroke="#7b8894" points="220.5,-200.07 217,-190.07 213.5,-200.07 220.5,-200.07"/>
</g>
<!-- 67db3bf9f3f64112bc3a52e77fdabf73 -->
<g id="node13" class="node">
<title>67db3bf9f3f64112bc3a52e77fdabf73</title>
<image xlink:href="/Users/oldroot/.agents/skills/architecture-diagrams/.venv/lib/python3.14/site-packages/resources/generic/database/sql.png" width="100.8px" height="100.8px" preserveAspectRatio="xMinYMin meet" x="770.6" y="-156.2"/>
<text xml:space="preserve" text-anchor="middle" x="821" y="-37.65" font-family="Sans-Serif" font-size="13.00" fill="#2d3436">Local SQLite</text>
<text xml:space="preserve" text-anchor="middle" x="821" y="-24.15" font-family="Sans-Serif" font-size="13.00" fill="#2d3436">mail runtime tables</text>
</g>
<!-- ad687ca504ce49238ee88799429edfdc&#45;&gt;67db3bf9f3f64112bc3a52e77fdabf73 -->
<g id="edge10" class="edge">
<title>ad687ca504ce49238ee88799429edfdc&#45;&gt;67db3bf9f3f64112bc3a52e77fdabf73</title>
<path fill="none" stroke="#7b8894" d="M821,-261.64C821,-241.79 821,-220.41 821,-200.07"/>
<polygon fill="#7b8894" stroke="#7b8894" points="824.5,-200.07 821,-190.07 817.5,-200.07 824.5,-200.07"/>
</g>
</g>
</svg>
