<?xml version="1.0" encoding="UTF-8" standalone="no"?>
<!DOCTYPE svg PUBLIC "-//W3C//DTD SVG 1.1//EN"
 "http://www.w3.org/Graphics/SVG/1.1/DTD/svg11.dtd">
<!-- Generated by graphviz version 14.1.3 (20260303.0454)
 -->
<!-- Title: mailservice&#45;container&#45;view Pages: 1 -->
<svg width="1110pt" height="1184pt"
 viewBox="0.00 0.00 1110.00 1184.00" xmlns="http://www.w3.org/2000/svg" xmlns:xlink="http://www.w3.org/1999/xlink">
<g id="graph0" class="graph" transform="scale(1 1) rotate(0) translate(36 1147.9)">
<title>mailservice&#45;container&#45;view</title>
<polygon fill="#ffffff" stroke="none" points="-36,36 -36,-1147.9 1074,-1147.9 1074,36 -36,36"/>
<text xml:space="preserve" text-anchor="middle" x="519" y="-5.7" font-family="Sans-Serif" font-size="14.00" fill="#2d3436">mailservice&#45;container&#45;view</text>
<g id="clust1" class="cluster">
<title>cluster_Core</title>
<path fill="#e5f5fd" stroke="#aeb6be" d="M20,-224.8C20,-224.8 112,-224.8 112,-224.8 118,-224.8 124,-230.8 124,-236.8 124,-236.8 124,-667 124,-667 124,-673 118,-679 112,-679 112,-679 20,-679 20,-679 14,-679 8,-673 8,-667 8,-667 8,-236.8 8,-236.8 8,-230.8 14,-224.8 20,-224.8"/>
<text xml:space="preserve" text-anchor="middle" x="29.12" y="-663.6" font-family="Sans-Serif" font-size="12.00" fill="#2d3436">Core</text>
</g>
<g id="clust2" class="cluster">
<title>cluster_Adapters</title>
<path fill="#e5f5fd" stroke="#aeb6be" d="M171,-224.8C171,-224.8 1018,-224.8 1018,-224.8 1024,-224.8 1030,-230.8 1030,-236.8 1030,-236.8 1030,-415.15 1030,-415.15 1030,-421.15 1024,-427.15 1018,-427.15 1018,-427.15 171,-427.15 171,-427.15 165,-427.15 159,-421.15 159,-415.15 159,-415.15 159,-236.8 159,-236.8 159,-230.8 165,-224.8 171,-224.8"/>
<text xml:space="preserve" text-anchor="middle" x="191" y="-411.75" font-family="Sans-Serif" font-size="12.00" fill="#2d3436">Adapters</text>
</g>
<!-- 742c6f323ee04cbe96cb20fcb79b9a64 -->
<g id="node1" class="node">
<title>742c6f323ee04cbe96cb20fcb79b9a64</title>
<image xlink:href="/Users/oldroot/.agents/skills/architecture-diagrams/.venv/lib/python3.14/site-packages/resources/onprem/client/user.png" width="100.8px" height="100.8px" preserveAspectRatio="xMinYMin meet" x="15.6" y="-1093.9"/>
<text xml:space="preserve" text-anchor="middle" x="66" y="-976.25" font-family="Sans-Serif" font-size="13.00" fill="#2d3436">Agent / API client</text>
</g>
<!-- 913a7341fae045cfa22305b641989ef6 -->
<g id="node2" class="node">
<title>913a7341fae045cfa22305b641989ef6</title>
<image xlink:href="/Users/oldroot/.agents/skills/architecture-diagrams/.venv/lib/python3.14/site-packages/resources/generic/network/router.png" width="100.8px" height="100.8px" preserveAspectRatio="xMinYMin meet" x="15.6" y="-857.2"/>
<text xml:space="preserve" text-anchor="middle" x="66" y="-738.65" font-family="Sans-Serif" font-size="13.00" fill="#2d3436">HTTP API</text>
<text xml:space="preserve" text-anchor="middle" x="66" y="-725.15" font-family="Sans-Serif" font-size="13.00" fill="#2d3436">internal/adapters/httpapi</text>
</g>
<!-- 742c6f323ee04cbe96cb20fcb79b9a64&#45;&gt;913a7341fae045cfa22305b641989ef6 -->
<g id="edge1" class="edge">
<title>742c6f323ee04cbe96cb20fcb79b9a64&#45;&gt;913a7341fae045cfa22305b641989ef6</title>
<path fill="none" stroke="#7b8894" d="M66,-975.24C66,-951.99 66,-925.5 66,-900.56"/>
<polygon fill="#7b8894" stroke="#7b8894" points="69.5,-900.74 66,-890.74 62.5,-900.74 69.5,-900.74"/>
<text xml:space="preserve" text-anchor="middle" x="102.75" y="-926.75" font-family="Sans-Serif" font-size="13.00" fill="#2d3436">HTTP JSON</text>
</g>
<!-- c2855d59e87e4443b8d5e8930c0137f1 -->
<g id="node3" class="node">
<title>c2855d59e87e4443b8d5e8930c0137f1</title>
<image xlink:href="/Users/oldroot/.agents/skills/architecture-diagrams/.venv/lib/python3.14/site-packages/resources/generic/compute/rack.png" width="100.8px" height="100.8px" preserveAspectRatio="xMinYMin meet" x="15.6" y="-617.85"/>
<text xml:space="preserve" text-anchor="middle" x="66" y="-499.3" font-family="Sans-Serif" font-size="13.00" fill="#2d3436">Core services</text>
<text xml:space="preserve" text-anchor="middle" x="66" y="-485.8" font-family="Sans-Serif" font-size="13.00" fill="#2d3436">internal/core/service</text>
</g>
<!-- 913a7341fae045cfa22305b641989ef6&#45;&gt;c2855d59e87e4443b8d5e8930c0137f1 -->
<g id="edge2" class="edge">
<title>913a7341fae045cfa22305b641989ef6&#45;&gt;c2855d59e87e4443b8d5e8930c0137f1</title>
<path fill="none" stroke="#7b8894" d="M66,-724.12C66,-703.86 66,-682.02 66,-661.27"/>
<polygon fill="#7b8894" stroke="#7b8894" points="69.5,-661.39 66,-651.39 62.5,-661.39 69.5,-661.39"/>
</g>
<!-- 7eec17488ded446a8178f0fa8152f5aa -->
<g id="node4" class="node">
<title>7eec17488ded446a8178f0fa8152f5aa</title>
<image xlink:href="/Users/oldroot/.agents/skills/architecture-diagrams/.venv/lib/python3.14/site-packages/resources/generic/compute/rack.png" width="100.8px" height="100.8px" preserveAspectRatio="xMinYMin meet" x="15.6" y="-366"/>
<text xml:space="preserve" text-anchor="middle" x="66" y="-247.45" font-family="Sans-Serif" font-size="13.00" fill="#2d3436">Domain + ports</text>
<text xml:space="preserve" text-anchor="middle" x="66" y="-233.95" font-family="Sans-Serif" font-size="13.00" fill="#2d3436">internal/domain + internal/core/ports</text>
</g>
<!-- c2855d59e87e4443b8d5e8930c0137f1&#45;&gt;7eec17488ded446a8178f0fa8152f5aa -->
<g id="edge3" class="edge">
<title>c2855d59e87e4443b8d5e8930c0137f1&#45;&gt;7eec17488ded446a8178f0fa8152f5aa</title>
<path fill="none" stroke="#7b8894" d="M66,-484.99C66,-460.9 66,-434.36 66,-409.61"/>
<polygon fill="#7b8894" stroke="#7b8894" points="69.5,-409.89 66,-399.89 62.5,-409.89 69.5,-409.89"/>
</g>
<!-- 38260a958e764245a41fb8f585b81b12 -->
<g id="node5" class="node">
<title>38260a958e764245a41fb8f585b81b12</title>
<image xlink:href="/Users/oldroot/.agents/skills/architecture-diagrams/.venv/lib/python3.14/site-packages/resources/generic/compute/rack.png" width="100.8px" height="100.8px" preserveAspectRatio="xMinYMin meet" x="166.6" y="-366"/>
<text xml:space="preserve" text-anchor="middle" x="217" y="-247.45" font-family="Sans-Serif" font-size="13.00" fill="#2d3436">Repositories</text>
<text xml:space="preserve" text-anchor="middle" x="217" y="-233.95" font-family="Sans-Serif" font-size="13.00" fill="#2d3436">internal/adapters/repository</text>
</g>
<!-- c2855d59e87e4443b8d5e8930c0137f1&#45;&gt;38260a958e764245a41fb8f585b81b12 -->
<g id="edge4" class="edge">
<title>c2855d59e87e4443b8d5e8930c0137f1&#45;&gt;38260a958e764245a41fb8f585b81b12</title>
<path fill="none" stroke="#7b8894" d="M115.23,-484.99C130.12,-460.36 146.55,-433.17 161.8,-407.94"/>
<polygon fill="#7b8894" stroke="#7b8894" points="164.61,-410.05 166.79,-399.68 158.62,-406.42 164.61,-410.05"/>
<text xml:space="preserve" text-anchor="middle" x="161" y="-436.3" font-family="Sans-Serif" font-size="13.00" fill="#2d3436">CRUD</text>
</g>
<!-- 876cfc249667479bab85272eec1879c5 -->
<g id="node6" class="node">
<title>876cfc249667479bab85272eec1879c5</title>
<image xlink:href="/Users/oldroot/.agents/skills/architecture-diagrams/.venv/lib/python3.14/site-packages/resources/generic/compute/rack.png" width="100.8px" height="100.8px" preserveAspectRatio="xMinYMin meet" x="317.6" y="-366"/>
<text xml:space="preserve" text-anchor="middle" x="368" y="-247.45" font-family="Sans-Serif" font-size="13.00" fill="#2d3436">Identity</text>
<text xml:space="preserve" text-anchor="middle" x="368" y="-233.95" font-family="Sans-Serif" font-size="13.00" fill="#2d3436">internal/adapters/identity/edproof</text>
</g>
<!-- c2855d59e87e4443b8d5e8930c0137f1&#45;&gt;876cfc249667479bab85272eec1879c5 -->
<g id="edge6" class="edge">
<title>c2855d59e87e4443b8d5e8930c0137f1&#45;&gt;876cfc249667479bab85272eec1879c5</title>
<path fill="none" stroke="#7b8894" d="M116.34,-543.13C165.05,-518.9 239.07,-477.5 292,-427.15 298.55,-420.92 304.86,-414.04 310.85,-406.84"/>
<polygon fill="#7b8894" stroke="#7b8894" points="313.25,-409.44 316.79,-399.46 307.8,-405.06 313.25,-409.44"/>
<text xml:space="preserve" text-anchor="middle" x="327.24" y="-436.3" font-family="Sans-Serif" font-size="13.00" fill="#2d3436">verify key proof</text>
</g>
<!-- 3238fe78bdfa4064863f9f62776eed47 -->
<g id="node7" class="node">
<title>3238fe78bdfa4064863f9f62776eed47</title>
<image xlink:href="/Users/oldroot/.agents/skills/architecture-diagrams/.venv/lib/python3.14/site-packages/resources/generic/compute/rack.png" width="100.8px" height="100.8px" preserveAspectRatio="xMinYMin meet" x="468.6" y="-366"/>
<text xml:space="preserve" text-anchor="middle" x="519" y="-247.45" font-family="Sans-Serif" font-size="13.00" fill="#2d3436">Payments</text>
<text xml:space="preserve" text-anchor="middle" x="519" y="-233.95" font-family="Sans-Serif" font-size="13.00" fill="#2d3436">internal/adapters/payment</text>
</g>
<!-- c2855d59e87e4443b8d5e8930c0137f1&#45;&gt;3238fe78bdfa4064863f9f62776eed47 -->
<g id="edge7" class="edge">
<title>c2855d59e87e4443b8d5e8930c0137f1&#45;&gt;3238fe78bdfa4064863f9f62776eed47</title>
<path fill="none" stroke="#7b8894" d="M116.22,-558.01C193.31,-542.98 342.4,-505.51 443,-427.15 450.69,-421.16 457.9,-414.17 464.58,-406.67"/>
<polygon fill="#7b8894" stroke="#7b8894" points="466.85,-409.41 470.63,-399.52 461.5,-404.89 466.85,-409.41"/>
<text xml:space="preserve" text-anchor="middle" x="492.78" y="-436.3" font-family="Sans-Serif" font-size="13.00" fill="#2d3436">create + verify session</text>
</g>
<!-- e1baf14c12934a16be9b4ba96fd39f3b -->
<g id="node8" class="node">
<title>e1baf14c12934a16be9b4ba96fd39f3b</title>
<image xlink:href="/Users/oldroot/.agents/skills/architecture-diagrams/.venv/lib/python3.14/site-packages/resources/generic/compute/rack.png" width="100.8px" height="100.8px" preserveAspectRatio="xMinYMin meet" x="619.6" y="-366"/>
<text xml:space="preserve" text-anchor="middle" x="670" y="-247.45" font-family="Sans-Serif" font-size="13.00" fill="#2d3436">Notifier</text>
<text xml:space="preserve" text-anchor="middle" x="670" y="-233.95" font-family="Sans-Serif" font-size="13.00" fill="#2d3436">internal/adapters/notify</text>
</g>
<!-- c2855d59e87e4443b8d5e8930c0137f1&#45;&gt;e1baf14c12934a16be9b4ba96fd39f3b -->
<g id="edge8" class="edge">
<title>c2855d59e87e4443b8d5e8930c0137f1&#45;&gt;e1baf14c12934a16be9b4ba96fd39f3b</title>
<path fill="none" stroke="#7b8894" d="M116.22,-563.68C210.9,-556.59 419.93,-531.98 572,-448.65 590.33,-438.6 606.2,-423.5 619.51,-407.05"/>
<polygon fill="#7b8894" stroke="#7b8894" points="621.96,-409.6 625.31,-399.54 616.42,-405.32 621.96,-409.6"/>
<text xml:space="preserve" text-anchor="middle" x="622.57" y="-436.3" font-family="Sans-Serif" font-size="13.00" fill="#2d3436">send email</text>
</g>
<!-- 64abf55102864ee9bbbc8ece288c6653 -->
<g id="node9" class="node">
<title>64abf55102864ee9bbbc8ece288c6653</title>
<image xlink:href="/Users/oldroot/.agents/skills/architecture-diagrams/.venv/lib/python3.14/site-packages/resources/generic/compute/rack.png" width="100.8px" height="100.8px" preserveAspectRatio="xMinYMin meet" x="770.6" y="-366"/>
<text xml:space="preserve" text-anchor="middle" x="821" y="-247.45" font-family="Sans-Serif" font-size="13.00" fill="#2d3436">IMAP reader</text>
<text xml:space="preserve" text-anchor="middle" x="821" y="-233.95" font-family="Sans-Serif" font-size="13.00" fill="#2d3436">internal/adapters/imap</text>
</g>
<!-- c2855d59e87e4443b8d5e8930c0137f1&#45;&gt;64abf55102864ee9bbbc8ece288c6653 -->
<g id="edge9" class="edge">
<title>c2855d59e87e4443b8d5e8930c0137f1&#45;&gt;64abf55102864ee9bbbc8ece288c6653</title>
<path fill="none" stroke="#7b8894" d="M116.4,-561.41C255.75,-546.67 642.68,-500 745,-427.15 753.15,-421.35 760.71,-414.38 767.64,-406.8"/>
<polygon fill="#7b8894" stroke="#7b8894" points="770.04,-409.37 773.92,-399.51 764.74,-404.79 770.04,-409.37"/>
<text xml:space="preserve" text-anchor="middle" x="783.83" y="-436.3" font-family="Sans-Serif" font-size="13.00" fill="#2d3436">list/read messages</text>
</g>
<!-- 1dfcd5ec611b4a2689ffe89ef4a171a6 -->
<g id="node10" class="node">
<title>1dfcd5ec611b4a2689ffe89ef4a171a6</title>
<image xlink:href="/Users/oldroot/.agents/skills/architecture-diagrams/.venv/lib/python3.14/site-packages/resources/generic/compute/rack.png" width="100.8px" height="100.8px" preserveAspectRatio="xMinYMin meet" x="921.6" y="-366"/>
<text xml:space="preserve" text-anchor="middle" x="972" y="-247.45" font-family="Sans-Serif" font-size="13.00" fill="#2d3436">Token generator</text>
<text xml:space="preserve" text-anchor="middle" x="972" y="-233.95" font-family="Sans-Serif" font-size="13.00" fill="#2d3436">internal/adapters/token</text>
</g>
<!-- c2855d59e87e4443b8d5e8930c0137f1&#45;&gt;1dfcd5ec611b4a2689ffe89ef4a171a6 -->
<g id="edge10" class="edge">
<title>c2855d59e87e4443b8d5e8930c0137f1&#45;&gt;1dfcd5ec611b4a2689ffe89ef4a171a6</title>
<path fill="none" stroke="#7b8894" d="M116.38,-564.22C242.86,-557.49 582.9,-532.38 852,-448.65 872.78,-442.18 879.52,-441.36 896,-427.15 903.04,-421.08 909.73,-414.22 916,-406.96"/>
<polygon fill="#7b8894" stroke="#7b8894" points="918.54,-409.39 922.22,-399.45 913.15,-404.92 918.54,-409.39"/>
<text xml:space="preserve" text-anchor="middle" x="919.61" y="-436.3" font-family="Sans-Serif" font-size="13.00" fill="#2d3436">mint tokens</text>
</g>
<!-- f712b1487e8d4561910ebb51a1db7d9e -->
<g id="node11" class="node">
<title>f712b1487e8d4561910ebb51a1db7d9e</title>
<image xlink:href="/Users/oldroot/.agents/skills/architecture-diagrams/.venv/lib/python3.14/site-packages/resources/generic/database/sql.png" width="100.8px" height="100.8px" preserveAspectRatio="xMinYMin meet" x="166.6" y="-141.8"/>
<text xml:space="preserve" text-anchor="middle" x="217" y="-24.15" font-family="Sans-Serif" font-size="13.00" fill="#2d3436">SQLite / Turso</text>
</g>
<!-- 38260a958e764245a41fb8f585b81b12&#45;&gt;f712b1487e8d4561910ebb51a1db7d9e -->
<g id="edge5" class="edge">
<title>38260a958e764245a41fb8f585b81b12&#45;&gt;f712b1487e8d4561910ebb51a1db7d9e</title>
<path fill="none" stroke="#7b8894" d="M217,-232.81C217,-212.54 217,-190.88 217,-170.78"/>
<polygon fill="#7b8894" stroke="#7b8894" points="220.5,-170.99 217,-160.99 213.5,-170.99 220.5,-170.99"/>
</g>
</g>
</svg>
