<?xml version="1.0" encoding="UTF-8" standalone="no"?>
<!DOCTYPE svg PUBLIC "-//W3C//DTD SVG 1.1//EN"
 "http://www.w3.org/Graphics/SVG/1.1/DTD/svg11.dtd">
<!-- Generated by graphviz version 14.1.3 (20260303.0454)
 -->
<!-- Title: mailservice&#45;deployment&#45;view Pages: 1 -->
<svg width="774pt" height="1183pt"
 viewBox="0.00 0.00 774.00 1183.00" xmlns="http://www.w3.org/2000/svg" xmlns:xlink="http://www.w3.org/1999/xlink">
<g id="graph0" class="graph" transform="scale(1 1) rotate(0) translate(36 1146.85)">
<title>mailservice&#45;deployment&#45;view</title>
<polygon fill="#ffffff" stroke="none" points="-36,36 -36,-1146.85 738,-1146.85 738,36 -36,36"/>
<text xml:space="preserve" text-anchor="middle" x="351" y="-5.7" font-family="Sans-Serif" font-size="14.00" fill="#2d3436">mailservice&#45;deployment&#45;view</text>
<g id="clust1" class="cluster">
<title>cluster_Hetzner Cloud VM</title>
<path fill="#e5f5fd" stroke="#aeb6be" d="M370,-31C370,-31 682,-31 682,-31 688,-31 694,-37 694,-43 694,-43 694,-904.55 694,-904.55 694,-910.55 688,-916.55 682,-916.55 682,-916.55 370,-916.55 370,-916.55 364,-916.55 358,-910.55 358,-904.55 358,-904.55 358,-43 358,-43 358,-37 364,-31 370,-31"/>
<text xml:space="preserve" text-anchor="middle" x="415.12" y="-901.15" font-family="Sans-Serif" font-size="12.00" fill="#2d3436">Hetzner Cloud VM</text>
</g>
<g id="clust2" class="cluster">
<title>cluster_NixOS deployment</title>
<path fill="#e5f5fd" stroke="#aeb6be" d="M20,-31C20,-31 113,-31 113,-31 119,-31 125,-37 125,-43 125,-43 125,-667.85 125,-667.85 125,-673.85 119,-679.85 113,-679.85 113,-679.85 20,-679.85 20,-679.85 14,-679.85 8,-673.85 8,-667.85 8,-667.85 8,-43 8,-43 8,-37 14,-31 20,-31"/>
<text xml:space="preserve" text-anchor="middle" x="66.25" y="-664.45" font-family="Sans-Serif" font-size="12.00" fill="#2d3436">NixOS deployment</text>
</g>
<!-- dcb9fc2ec8024e6dbb4575888e513c0c -->
<g id="node1" class="node">
<title>dcb9fc2ec8024e6dbb4575888e513c0c</title>
<image xlink:href="/Users/oldroot/.agents/skills/architecture-diagrams/.venv/lib/python3.14/site-packages/resources/onprem/ci/github-actions.png" width="100.8px" height="100.8px" preserveAspectRatio="xMinYMin meet" x="90.6" y="-869.8"/>
<text xml:space="preserve" text-anchor="middle" x="141" y="-752.15" font-family="Sans-Serif" font-size="13.00" fill="#2d3436">GitHub Actions</text>
</g>
<!-- 93666f75d89c42bb93984d71ff59e145 -->
<g id="node4" class="node">
<title>93666f75d89c42bb93984d71ff59e145</title>
<image xlink:href="/Users/oldroot/.agents/skills/architecture-diagrams/.venv/lib/python3.14/site-packages/resources/generic/compute/rack.png" width="100.8px" height="100.8px" preserveAspectRatio="xMinYMin meet" x="365.6" y="-633.1"/>
<text xml:space="preserve" text-anchor="middle" x="416" y="-514.55" font-family="Sans-Serif" font-size="13.00" fill="#2d3436">mailservice&#45;api</text>
<text xml:space="preserve" text-anchor="middle" x="416" y="-501.05" font-family="Sans-Serif" font-size="13.00" fill="#2d3436">systemd</text>
</g>
<!-- dcb9fc2ec8024e6dbb4575888e513c0c&#45;&gt;93666f75d89c42bb93984d71ff59e145 -->
<g id="edge4" class="edge">
<title>dcb9fc2ec8024e6dbb4575888e513c0c&#45;&gt;93666f75d89c42bb93984d71ff59e145</title>
<path fill="none" stroke="#7b8894" d="M191.34,-773.67C216.17,-751.76 246.63,-725.08 274.25,-701.5 301.24,-678.45 331.45,-653.26 357.03,-632.11"/>
<polygon fill="#7b8894" stroke="#7b8894" points="359.22,-634.84 364.7,-625.77 354.76,-629.44 359.22,-634.84"/>
<text xml:space="preserve" text-anchor="middle" x="339.12" y="-702.65" font-family="Sans-Serif" font-size="13.00" fill="#2d3436">workflow + infra apply</text>
</g>
<!-- 17fc2fcfdee842dcacdbd90e4f11cd51 -->
<g id="node9" class="node">
<title>17fc2fcfdee842dcacdbd90e4f11cd51</title>
<image xlink:href="/Users/oldroot/.agents/skills/architecture-diagrams/.venv/lib/python3.14/site-packages/resources/generic/place/datacenter.png" width="100.8px" height="100.8px" preserveAspectRatio="xMinYMin meet" x="16.6" y="-633.1"/>
<text xml:space="preserve" text-anchor="middle" x="67" y="-515.45" font-family="Sans-Serif" font-size="13.00" fill="#2d3436">git sync</text>
</g>
<!-- dcb9fc2ec8024e6dbb4575888e513c0c&#45;&gt;17fc2fcfdee842dcacdbd90e4f11cd51 -->
<g id="edge1" class="edge">
<title>dcb9fc2ec8024e6dbb4575888e513c0c&#45;&gt;17fc2fcfdee842dcacdbd90e4f11cd51</title>
<path fill="none" stroke="#7b8894" d="M119.79,-751.14C111.01,-723.28 100.76,-690.77 91.64,-661.86"/>
<polygon fill="#7b8894" stroke="#7b8894" points="95.01,-660.89 88.66,-652.41 88.33,-663 95.01,-660.89"/>
<text xml:space="preserve" text-anchor="middle" x="135.47" y="-702.65" font-family="Sans-Serif" font-size="13.00" fill="#2d3436">sync repo</text>
</g>
<!-- f740a63417a7496f86def83a4b023182 -->
<g id="node2" class="node">
<title>f740a63417a7496f86def83a4b023182</title>
<image xlink:href="/Users/oldroot/.agents/skills/architecture-diagrams/.venv/lib/python3.14/site-packages/resources/generic/network/firewall.png" width="100.8px" height="100.8px" preserveAspectRatio="xMinYMin meet" x="365.6" y="-1092.85"/>
<text xml:space="preserve" text-anchor="middle" x="416" y="-975.2" font-family="Sans-Serif" font-size="13.00" fill="#2d3436">Cloudflare Tunnel</text>
</g>
<!-- b0229c35b67b4bf4b682f3a3ec2ac173 -->
<g id="node7" class="node">
<title>b0229c35b67b4bf4b682f3a3ec2ac173</title>
<image xlink:href="/Users/oldroot/.agents/skills/architecture-diagrams/.venv/lib/python3.14/site-packages/resources/generic/compute/rack.png" width="100.8px" height="100.8px" preserveAspectRatio="xMinYMin meet" x="365.6" y="-869.8"/>
<text xml:space="preserve" text-anchor="middle" x="416" y="-752.15" font-family="Sans-Serif" font-size="13.00" fill="#2d3436">mailservice&#45;cloudflared</text>
</g>
<!-- f740a63417a7496f86def83a4b023182&#45;&gt;b0229c35b67b4bf4b682f3a3ec2ac173 -->
<g id="edge5" class="edge">
<title>f740a63417a7496f86def83a4b023182&#45;&gt;b0229c35b67b4bf4b682f3a3ec2ac173</title>
<path fill="none" stroke="#7b8894" d="M416,-974.23C416,-950.54 416,-923.71 416,-899.15"/>
<polygon fill="#7b8894" stroke="#7b8894" points="419.5,-899.2 416,-889.2 412.5,-899.2 419.5,-899.2"/>
<text xml:space="preserve" text-anchor="middle" x="457.25" y="-925.7" font-family="Sans-Serif" font-size="13.00" fill="#2d3436">public ingress</text>
</g>
<!-- 6e57ae8b809f453e845545ec6e2d6e3e -->
<g id="node3" class="node">
<title>6e57ae8b809f453e845545ec6e2d6e3e</title>
<image xlink:href="/Users/oldroot/.agents/skills/architecture-diagrams/.venv/lib/python3.14/site-packages/resources/generic/compute/rack.png" width="100.8px" height="100.8px" preserveAspectRatio="xMinYMin meet" x="166.6" y="-382"/>
<text xml:space="preserve" text-anchor="middle" x="217" y="-264.35" font-family="Sans-Serif" font-size="13.00" fill="#2d3436">Polar</text>
</g>
<!-- 93666f75d89c42bb93984d71ff59e145&#45;&gt;6e57ae8b809f453e845545ec6e2d6e3e -->
<g id="edge7" class="edge">
<title>93666f75d89c42bb93984d71ff59e145&#45;&gt;6e57ae8b809f453e845545ec6e2d6e3e</title>
<path fill="none" stroke="#7b8894" d="M365.77,-557.3C329.31,-537.1 281.55,-505.07 253,-463.9 242.13,-448.22 234.54,-429.38 229.23,-410.93"/>
<polygon fill="#7b8894" stroke="#7b8894" points="232.62,-410.06 226.68,-401.29 225.86,-411.86 232.62,-410.06"/>
<text xml:space="preserve" text-anchor="middle" x="325" y="-451.55" font-family="Sans-Serif" font-size="13.00" fill="#2d3436">payment session lookup</text>
</g>
<!-- ef55d0f1aea04fb58e5c051640a70d28 -->
<g id="node5" class="node">
<title>ef55d0f1aea04fb58e5c051640a70d28</title>
<image xlink:href="/Users/oldroot/.agents/skills/architecture-diagrams/.venv/lib/python3.14/site-packages/resources/generic/compute/rack.png" width="100.8px" height="100.8px" preserveAspectRatio="xMinYMin meet" x="369.6" y="-382"/>
<text xml:space="preserve" text-anchor="middle" x="420" y="-263.45" font-family="Sans-Serif" font-size="13.00" fill="#2d3436">postfix</text>
<text xml:space="preserve" text-anchor="middle" x="420" y="-249.95" font-family="Sans-Serif" font-size="13.00" fill="#2d3436">inbound SMTP</text>
</g>
<!-- 93666f75d89c42bb93984d71ff59e145&#45;&gt;ef55d0f1aea04fb58e5c051640a70d28 -->
<g id="edge8" class="edge">
<title>93666f75d89c42bb93984d71ff59e145&#45;&gt;ef55d0f1aea04fb58e5c051640a70d28</title>
<path fill="none" stroke="#7b8894" d="M409.58,-500.11C408.96,-483.65 408.79,-466.47 409.5,-450.4 409.86,-442.36 410.35,-434.02 410.93,-425.67"/>
<polygon fill="#7b8894" stroke="#7b8894" points="414.42,-426.03 411.66,-415.79 407.43,-425.51 414.42,-426.03"/>
<text xml:space="preserve" text-anchor="middle" x="461.25" y="-451.55" font-family="Sans-Serif" font-size="13.00" fill="#2d3436">provision mailbox</text>
</g>
<!-- d156a943cd42493594affc00f548227e -->
<g id="node6" class="node">
<title>d156a943cd42493594affc00f548227e</title>
<image xlink:href="/Users/oldroot/.agents/skills/architecture-diagrams/.venv/lib/python3.14/site-packages/resources/generic/compute/rack.png" width="100.8px" height="100.8px" preserveAspectRatio="xMinYMin meet" x="524.6" y="-382"/>
<text xml:space="preserve" text-anchor="middle" x="575" y="-263.45" font-family="Sans-Serif" font-size="13.00" fill="#2d3436">dovecot2</text>
<text xml:space="preserve" text-anchor="middle" x="575" y="-249.95" font-family="Sans-Serif" font-size="13.00" fill="#2d3436">IMAP/LMTP</text>
</g>
<!-- 93666f75d89c42bb93984d71ff59e145&#45;&gt;d156a943cd42493594affc00f548227e -->
<g id="edge9" class="edge">
<title>93666f75d89c42bb93984d71ff59e145&#45;&gt;d156a943cd42493594affc00f548227e</title>
<path fill="none" stroke="#7b8894" d="M466.3,-532.83C485.14,-512.72 505.67,-488.4 521,-463.9 528.66,-451.66 535.64,-438.15 541.85,-424.59"/>
<polygon fill="#7b8894" stroke="#7b8894" points="544.98,-426.17 545.83,-415.61 538.58,-423.33 544.98,-426.17"/>
<text xml:space="preserve" text-anchor="middle" x="580.53" y="-451.55" font-family="Sans-Serif" font-size="13.00" fill="#2d3436">provision mailbox</text>
</g>
<!-- c68566b058e7459fa2988f45466b2616 -->
<g id="node8" class="node">
<title>c68566b058e7459fa2988f45466b2616</title>
<image xlink:href="/Users/oldroot/.agents/skills/architecture-diagrams/.venv/lib/python3.14/site-packages/resources/generic/storage/storage.png" width="100.8px" height="100.8px" preserveAspectRatio="xMinYMin meet" x="524.6" y="-157.8"/>
<text xml:space="preserve" text-anchor="middle" x="575" y="-40.15" font-family="Sans-Serif" font-size="13.00" fill="#2d3436">SQLite state</text>
</g>
<!-- 93666f75d89c42bb93984d71ff59e145&#45;&gt;c68566b058e7459fa2988f45466b2616 -->
<g id="edge10" class="edge">
<title>93666f75d89c42bb93984d71ff59e145&#45;&gt;c68566b058e7459fa2988f45466b2616</title>
<path fill="none" stroke="#7b8894" d="M466.05,-570.51C519.46,-555.76 602.05,-524.27 644,-463.9 668.52,-428.61 675.46,-350.49 650,-248.8 644.6,-227.24 635.2,-205.38 624.83,-185.52"/>
<polygon fill="#7b8894" stroke="#7b8894" points="628.05,-184.12 620.23,-176.97 621.89,-187.44 628.05,-184.12"/>
</g>
<!-- ef55d0f1aea04fb58e5c051640a70d28&#45;&gt;c68566b058e7459fa2988f45466b2616 -->
<g id="edge11" class="edge">
<title>ef55d0f1aea04fb58e5c051640a70d28&#45;&gt;c68566b058e7459fa2988f45466b2616</title>
<path fill="none" stroke="#7b8894" d="M470.32,-258.46C486.71,-234.97 504.96,-208.81 521.56,-185"/>
<polygon fill="#7b8894" stroke="#7b8894" points="524.37,-187.1 527.22,-176.9 518.62,-183.1 524.37,-187.1"/>
</g>
<!-- d156a943cd42493594affc00f548227e&#45;&gt;c68566b058e7459fa2988f45466b2616 -->
<g id="edge12" class="edge">
<title>d156a943cd42493594affc00f548227e&#45;&gt;c68566b058e7459fa2988f45466b2616</title>
<path fill="none" stroke="#7b8894" d="M575,-248.81C575,-228.54 575,-206.88 575,-186.78"/>
<polygon fill="#7b8894" stroke="#7b8894" points="578.5,-186.99 575,-176.99 571.5,-186.99 578.5,-186.99"/>
</g>
<!-- b0229c35b67b4bf4b682f3a3ec2ac173&#45;&gt;93666f75d89c42bb93984d71ff59e145 -->
<g id="edge6" class="edge">
<title>b0229c35b67b4bf4b682f3a3ec2ac173&#45;&gt;93666f75d89c42bb93984d71ff59e145</title>
<path fill="none" stroke="#7b8894" d="M416,-751.14C416,-727.89 416,-701.4 416,-676.46"/>
<polygon fill="#7b8894" stroke="#7b8894" points="419.5,-676.64 416,-666.64 412.5,-676.64 419.5,-676.64"/>
</g>
<!-- a19b4e5e410543b8984e5094d869a1e7 -->
<g id="node10" class="node">
<title>a19b4e5e410543b8984e5094d869a1e7</title>
<image xlink:href="/Users/oldroot/.agents/skills/architecture-diagrams/.venv/lib/python3.14/site-packages/resources/generic/place/datacenter.png" width="100.8px" height="100.8px" preserveAspectRatio="xMinYMin meet" x="15.6" y="-382"/>
<text xml:space="preserve" text-anchor="middle" x="66" y="-264.35" font-family="Sans-Serif" font-size="13.00" fill="#2d3436">nixos&#45;rebuild switch</text>
</g>
<!-- 17fc2fcfdee842dcacdbd90e4f11cd51&#45;&gt;a19b4e5e410543b8984e5094d869a1e7 -->
<g id="edge2" class="edge">
<title>17fc2fcfdee842dcacdbd90e4f11cd51&#45;&gt;a19b4e5e410543b8984e5094d869a1e7</title>
<path fill="none" stroke="#7b8894" d="M66.73,-514.62C66.6,-482.64 66.45,-444.19 66.31,-410.88"/>
<polygon fill="#7b8894" stroke="#7b8894" points="69.82,-411.3 66.28,-401.32 62.82,-411.33 69.82,-411.3"/>
</g>
<!-- 84d2b14091a041c5a6ab7a77d77f4274 -->
<g id="node11" class="node">
<title>84d2b14091a041c5a6ab7a77d77f4274</title>
<image xlink:href="/Users/oldroot/.agents/skills/architecture-diagrams/.venv/lib/python3.14/site-packages/resources/generic/place/datacenter.png" width="100.8px" height="100.8px" preserveAspectRatio="xMinYMin meet" x="15.6" y="-157.8"/>
<text xml:space="preserve" text-anchor="middle" x="66" y="-40.15" font-family="Sans-Serif" font-size="13.00" fill="#2d3436">host health check</text>
</g>
<!-- a19b4e5e410543b8984e5094d869a1e7&#45;&gt;84d2b14091a041c5a6ab7a77d77f4274 -->
<g id="edge3" class="edge">
<title>a19b4e5e410543b8984e5094d869a1e7&#45;&gt;84d2b14091a041c5a6ab7a77d77f4274</title>
<path fill="none" stroke="#7b8894" d="M66,-263.33C66,-239.18 66,-211.74 66,-186.74"/>
<polygon fill="#7b8894" stroke="#7b8894" points="69.5,-186.96 66,-176.96 62.5,-186.96 69.5,-186.96"/>
</g>
</g>
</svg>
