<?xml version="1.0" encoding="UTF-8" standalone="no"?>
<!DOCTYPE svg PUBLIC "-//W3C//DTD SVG 1.1//EN"
 "http://www.w3.org/Graphics/SVG/1.1/DTD/svg11.dtd">
<!-- Generated by graphviz version 14.1.3 (20260303.0454)
 -->
<!-- Title: mailservice&#45;deployment&#45;view Pages: 1 -->
<svg width="1142pt" height="1170pt"
 viewBox="0.00 0.00 1142.00 1170.00" xmlns="http://www.w3.org/2000/svg" xmlns:xlink="http://www.w3.org/1999/xlink">
<g id="graph0" class="graph" transform="scale(1 1) rotate(0) translate(36 1134.35)">
<title>mailservice&#45;deployment&#45;view</title>
<polygon fill="#ffffff" stroke="none" points="-36,36 -36,-1134.35 1105.66,-1134.35 1105.66,36 -36,36"/>
<text xml:space="preserve" text-anchor="middle" x="534.83" y="-5.7" font-family="Sans-Serif" font-size="14.00" fill="#2d3436">mailservice&#45;deployment&#45;view</text>
<g id="clust1" class="cluster">
<title>cluster_Hetzner Cloud VM</title>
<path fill="#e5f5fd" stroke="#aeb6be" d="M188,-31C188,-31 722,-31 722,-31 728,-31 734,-37 734,-43 734,-43 734,-892.05 734,-892.05 734,-898.05 728,-904.05 722,-904.05 722,-904.05 188,-904.05 188,-904.05 182,-904.05 176,-898.05 176,-892.05 176,-892.05 176,-43 176,-43 176,-37 182,-31 188,-31"/>
<text xml:space="preserve" text-anchor="middle" x="233.12" y="-888.65" font-family="Sans-Serif" font-size="12.00" fill="#2d3436">Hetzner Cloud VM</text>
</g>
<g id="clust2" class="cluster">
<title>cluster_NixOS deploy sequence</title>
<path fill="#e5f5fd" stroke="#aeb6be" d="M20,-255.2C20,-255.2 142,-255.2 142,-255.2 148,-255.2 154,-261.2 154,-267.2 154,-267.2 154,-892.05 154,-892.05 154,-898.05 148,-904.05 142,-904.05 142,-904.05 20,-904.05 20,-904.05 14,-904.05 8,-898.05 8,-892.05 8,-892.05 8,-267.2 8,-267.2 8,-261.2 14,-255.2 20,-255.2"/>
<text xml:space="preserve" text-anchor="middle" x="80.88" y="-888.65" font-family="Sans-Serif" font-size="12.00" fill="#2d3436">NixOS deploy sequence</text>
</g>
<!-- c5dc24bca00c451599112470b93108d0 -->
<g id="node1" class="node">
<title>c5dc24bca00c451599112470b93108d0</title>
<image xlink:href="/Users/oldroot/.agents/skills/architecture-diagrams/.venv/lib/python3.14/site-packages/resources/onprem/ci/github-actions.png" width="100.8px" height="100.8px" preserveAspectRatio="xMinYMin meet" x="32.6" y="-1080.35"/>
<text xml:space="preserve" text-anchor="middle" x="83" y="-962.7" font-family="Sans-Serif" font-size="13.00" fill="#2d3436">GitHub Actions</text>
</g>
<!-- 175f109d53a64269bc017d7f8503e40a -->
<g id="node10" class="node">
<title>175f109d53a64269bc017d7f8503e40a</title>
<image xlink:href="/Users/oldroot/.agents/skills/architecture-diagrams/.venv/lib/python3.14/site-packages/resources/generic/place/datacenter.png" width="100.8px" height="100.8px" preserveAspectRatio="xMinYMin meet" x="32.6" y="-857.3"/>
<text xml:space="preserve" text-anchor="middle" x="83" y="-739.65" font-family="Sans-Serif" font-size="13.00" fill="#2d3436">git sync</text>
</g>
<!-- c5dc24bca00c451599112470b93108d0&#45;&gt;175f109d53a64269bc017d7f8503e40a -->
<g id="edge1" class="edge">
<title>c5dc24bca00c451599112470b93108d0&#45;&gt;175f109d53a64269bc017d7f8503e40a</title>
<path fill="none" stroke="#7b8894" d="M83,-961.73C83,-938.04 83,-911.21 83,-886.65"/>
<polygon fill="#7b8894" stroke="#7b8894" points="86.5,-886.7 83,-876.7 79.5,-886.7 86.5,-886.7"/>
<text xml:space="preserve" text-anchor="middle" x="141.12" y="-913.2" font-family="Sans-Serif" font-size="13.00" fill="#2d3436">deploy app revision</text>
</g>
<!-- 1ad2bfc45e064810a310ce7c5f6e6e3b -->
<g id="node2" class="node">
<title>1ad2bfc45e064810a310ce7c5f6e6e3b</title>
<image xlink:href="/Users/oldroot/.agents/skills/architecture-diagrams/.venv/lib/python3.14/site-packages/resources/generic/network/firewall.png" width="100.8px" height="100.8px" preserveAspectRatio="xMinYMin meet" x="484.6" y="-1080.35"/>
<text xml:space="preserve" text-anchor="middle" x="535" y="-962.7" font-family="Sans-Serif" font-size="13.00" fill="#2d3436">Cloudflare Edge/Tunnel</text>
</g>
<!-- 2530bfe32a554d869fa7e673238ff3b7 -->
<g id="node8" class="node">
<title>2530bfe32a554d869fa7e673238ff3b7</title>
<image xlink:href="/Users/oldroot/.agents/skills/architecture-diagrams/.venv/lib/python3.14/site-packages/resources/generic/compute/rack.png" width="100.8px" height="100.8px" preserveAspectRatio="xMinYMin meet" x="484.6" y="-857.3"/>
<text xml:space="preserve" text-anchor="middle" x="535" y="-739.65" font-family="Sans-Serif" font-size="13.00" fill="#2d3436">mailservice&#45;cloudflared</text>
</g>
<!-- 1ad2bfc45e064810a310ce7c5f6e6e3b&#45;&gt;2530bfe32a554d869fa7e673238ff3b7 -->
<g id="edge4" class="edge">
<title>1ad2bfc45e064810a310ce7c5f6e6e3b&#45;&gt;2530bfe32a554d869fa7e673238ff3b7</title>
<path fill="none" stroke="#7b8894" d="M535,-961.73C535,-938.04 535,-911.21 535,-886.65"/>
<polygon fill="#7b8894" stroke="#7b8894" points="538.5,-886.7 535,-876.7 531.5,-886.7 538.5,-886.7"/>
<text xml:space="preserve" text-anchor="middle" x="576.25" y="-913.2" font-family="Sans-Serif" font-size="13.00" fill="#2d3436">public ingress</text>
</g>
<!-- 57e707394cb1470d8c9914074833ad3a -->
<g id="node3" class="node">
<title>57e707394cb1470d8c9914074833ad3a</title>
<image xlink:href="/Users/oldroot/.agents/skills/architecture-diagrams/.venv/lib/python3.14/site-packages/resources/generic/compute/rack.png" width="100.8px" height="100.8px" preserveAspectRatio="xMinYMin meet" x="775.6" y="-382"/>
<text xml:space="preserve" text-anchor="middle" x="826" y="-264.35" font-family="Sans-Serif" font-size="13.00" fill="#2d3436">Polar</text>
</g>
<!-- f5d78f3b4800435280c5a371733cbea8 -->
<g id="node4" class="node">
<title>f5d78f3b4800435280c5a371733cbea8</title>
<image xlink:href="/Users/oldroot/.agents/skills/architecture-diagrams/.venv/lib/python3.14/site-packages/resources/generic/storage/storage.png" width="100.8px" height="100.8px" preserveAspectRatio="xMinYMin meet" x="950.6" y="-382"/>
<text xml:space="preserve" text-anchor="middle" x="1001" y="-264.35" font-family="Sans-Serif" font-size="13.00" fill="#2d3436">Turso (optional app DB mode)</text>
</g>
<!-- 8999b7ddaa9a4fc8927bc04e450bbc72 -->
<g id="node5" class="node">
<title>8999b7ddaa9a4fc8927bc04e450bbc72</title>
<image xlink:href="/Users/oldroot/.agents/skills/architecture-diagrams/.venv/lib/python3.14/site-packages/resources/generic/compute/rack.png" width="100.8px" height="100.8px" preserveAspectRatio="xMinYMin meet" x="484.6" y="-633.1"/>
<text xml:space="preserve" text-anchor="middle" x="535" y="-514.55" font-family="Sans-Serif" font-size="13.00" fill="#2d3436">mailservice&#45;api</text>
<text xml:space="preserve" text-anchor="middle" x="535" y="-501.05" font-family="Sans-Serif" font-size="13.00" fill="#2d3436">systemd</text>
</g>
<!-- 8999b7ddaa9a4fc8927bc04e450bbc72&#45;&gt;57e707394cb1470d8c9914074833ad3a -->
<g id="edge6" class="edge">
<title>8999b7ddaa9a4fc8927bc04e450bbc72&#45;&gt;57e707394cb1470d8c9914074833ad3a</title>
<path fill="none" stroke="#7b8894" d="M585.04,-544.85C628.72,-512.03 693.21,-461.97 746,-414.4 753.26,-407.86 760.69,-400.81 767.94,-393.69"/>
<polygon fill="#7b8894" stroke="#7b8894" points="770.03,-396.55 774.66,-387.02 765.1,-391.58 770.03,-396.55"/>
<text xml:space="preserve" text-anchor="middle" x="773.41" y="-451.55" font-family="Sans-Serif" font-size="13.00" fill="#2d3436">payment session lookup</text>
</g>
<!-- 8999b7ddaa9a4fc8927bc04e450bbc72&#45;&gt;f5d78f3b4800435280c5a371733cbea8 -->
<g id="edge7" class="edge">
<title>8999b7ddaa9a4fc8927bc04e450bbc72&#45;&gt;f5d78f3b4800435280c5a371733cbea8</title>
<path fill="none" stroke="#7b8894" d="M585.12,-569.86C650.83,-552.92 768.18,-517.75 857,-463.9 887.8,-445.23 917.89,-419.38 942.53,-395.55"/>
<polygon fill="#7b8894" stroke="#7b8894" points="944.9,-398.12 949.59,-388.62 940,-393.12 944.9,-398.12"/>
<text xml:space="preserve" text-anchor="middle" x="972.16" y="-451.55" font-family="Sans-Serif" font-size="13.00" fill="#2d3436">app data when DB_MODE=turso</text>
</g>
<!-- b7a93df44dd24966967c8dbf87489660 -->
<g id="node6" class="node">
<title>b7a93df44dd24966967c8dbf87489660</title>
<image xlink:href="/Users/oldroot/.agents/skills/architecture-diagrams/.venv/lib/python3.14/site-packages/resources/generic/compute/rack.png" width="100.8px" height="100.8px" preserveAspectRatio="xMinYMin meet" x="183.6" y="-382"/>
<text xml:space="preserve" text-anchor="middle" x="234" y="-263.45" font-family="Sans-Serif" font-size="13.00" fill="#2d3436">postfix</text>
<text xml:space="preserve" text-anchor="middle" x="234" y="-249.95" font-family="Sans-Serif" font-size="13.00" fill="#2d3436">inbound SMTP</text>
</g>
<!-- 8999b7ddaa9a4fc8927bc04e450bbc72&#45;&gt;b7a93df44dd24966967c8dbf87489660 -->
<g id="edge8" class="edge">
<title>8999b7ddaa9a4fc8927bc04e450bbc72&#45;&gt;b7a93df44dd24966967c8dbf87489660</title>
<path fill="none" stroke="#7b8894" d="M484.85,-567.74C432.09,-550.81 349.5,-517.68 296.5,-463.9 285.2,-452.43 275.65,-438.53 267.68,-424.11"/>
<polygon fill="#7b8894" stroke="#7b8894" points="270.86,-422.65 263.11,-415.42 264.66,-425.9 270.86,-422.65"/>
<text xml:space="preserve" text-anchor="middle" x="348.25" y="-451.55" font-family="Sans-Serif" font-size="13.00" fill="#2d3436">provision mailbox</text>
</g>
<!-- d919fa89cab4488cb107510803f57234 -->
<g id="node7" class="node">
<title>d919fa89cab4488cb107510803f57234</title>
<image xlink:href="/Users/oldroot/.agents/skills/architecture-diagrams/.venv/lib/python3.14/site-packages/resources/generic/compute/rack.png" width="100.8px" height="100.8px" preserveAspectRatio="xMinYMin meet" x="334.6" y="-382"/>
<text xml:space="preserve" text-anchor="middle" x="385" y="-263.45" font-family="Sans-Serif" font-size="13.00" fill="#2d3436">dovecot2</text>
<text xml:space="preserve" text-anchor="middle" x="385" y="-249.95" font-family="Sans-Serif" font-size="13.00" fill="#2d3436">IMAP/LMTP</text>
</g>
<!-- 8999b7ddaa9a4fc8927bc04e450bbc72&#45;&gt;d919fa89cab4488cb107510803f57234 -->
<g id="edge9" class="edge">
<title>8999b7ddaa9a4fc8927bc04e450bbc72&#45;&gt;d919fa89cab4488cb107510803f57234</title>
<path fill="none" stroke="#7b8894" d="M484.8,-541.93C461.49,-521.01 435.28,-493.57 418.5,-463.9 411.74,-451.94 406.32,-438.61 401.98,-425.15"/>
<polygon fill="#7b8894" stroke="#7b8894" points="405.4,-424.37 399.16,-415.8 398.69,-426.39 405.4,-424.37"/>
<text xml:space="preserve" text-anchor="middle" x="470.25" y="-451.55" font-family="Sans-Serif" font-size="13.00" fill="#2d3436">provision mailbox</text>
</g>
<!-- 7cc58b6afcf147f19ca163f52c25f182 -->
<g id="node9" class="node">
<title>7cc58b6afcf147f19ca163f52c25f182</title>
<image xlink:href="/Users/oldroot/.agents/skills/architecture-diagrams/.venv/lib/python3.14/site-packages/resources/generic/storage/storage.png" width="100.8px" height="100.8px" preserveAspectRatio="xMinYMin meet" x="334.6" y="-157.8"/>
<text xml:space="preserve" text-anchor="middle" x="385" y="-40.15" font-family="Sans-Serif" font-size="13.00" fill="#2d3436">SQLite state</text>
</g>
<!-- 8999b7ddaa9a4fc8927bc04e450bbc72&#45;&gt;7cc58b6afcf147f19ca163f52c25f182 -->
<g id="edge10" class="edge">
<title>8999b7ddaa9a4fc8927bc04e450bbc72&#45;&gt;7cc58b6afcf147f19ca163f52c25f182</title>
<path fill="none" stroke="#7b8894" d="M535.64,-500.03C534.72,-483.5 533,-466.32 530,-450.4 512.01,-354.85 464.92,-253.23 429.24,-185.83"/>
<polygon fill="#7b8894" stroke="#7b8894" points="432.36,-184.23 424.56,-177.06 426.18,-187.53 432.36,-184.23"/>
<text xml:space="preserve" text-anchor="middle" x="616.69" y="-326" font-family="Sans-Serif" font-size="13.00" fill="#2d3436">local DB mode or runtime tables</text>
</g>
<!-- b7a93df44dd24966967c8dbf87489660&#45;&gt;7cc58b6afcf147f19ca163f52c25f182 -->
<g id="edge11" class="edge">
<title>b7a93df44dd24966967c8dbf87489660&#45;&gt;7cc58b6afcf147f19ca163f52c25f182</title>
<path fill="none" stroke="#7b8894" d="M284.28,-256.61C299.89,-233.64 317.12,-208.28 332.86,-185.13"/>
<polygon fill="#7b8894" stroke="#7b8894" points="335.69,-187.19 338.41,-176.95 329.9,-183.26 335.69,-187.19"/>
</g>
<!-- d919fa89cab4488cb107510803f57234&#45;&gt;7cc58b6afcf147f19ca163f52c25f182 -->
<g id="edge12" class="edge">
<title>d919fa89cab4488cb107510803f57234&#45;&gt;7cc58b6afcf147f19ca163f52c25f182</title>
<path fill="none" stroke="#7b8894" d="M385,-248.81C385,-228.54 385,-206.88 385,-186.78"/>
<polygon fill="#7b8894" stroke="#7b8894" points="388.5,-186.99 385,-176.99 381.5,-186.99 388.5,-186.99"/>
</g>
<!-- 2530bfe32a554d869fa7e673238ff3b7&#45;&gt;8999b7ddaa9a4fc8927bc04e450bbc72 -->
<g id="edge5" class="edge">
<title>2530bfe32a554d869fa7e673238ff3b7&#45;&gt;8999b7ddaa9a4fc8927bc04e450bbc72</title>
<path fill="none" stroke="#7b8894" d="M535,-738.63C535,-719.12 535,-697.47 535,-676.68"/>
<polygon fill="#7b8894" stroke="#7b8894" points="538.5,-676.76 535,-666.76 531.5,-676.76 538.5,-676.76"/>
</g>
<!-- 2701a539b1f74fafb831948476786452 -->
<g id="node11" class="node">
<title>2701a539b1f74fafb831948476786452</title>
<image xlink:href="/Users/oldroot/.agents/skills/architecture-diagrams/.venv/lib/python3.14/site-packages/resources/generic/place/datacenter.png" width="100.8px" height="100.8px" preserveAspectRatio="xMinYMin meet" x="32.6" y="-633.1"/>
<text xml:space="preserve" text-anchor="middle" x="83" y="-515.45" font-family="Sans-Serif" font-size="13.00" fill="#2d3436">nixos&#45;rebuild switch</text>
</g>
<!-- 175f109d53a64269bc017d7f8503e40a&#45;&gt;2701a539b1f74fafb831948476786452 -->
<g id="edge2" class="edge">
<title>175f109d53a64269bc017d7f8503e40a&#45;&gt;2701a539b1f74fafb831948476786452</title>
<path fill="none" stroke="#7b8894" d="M83,-738.63C83,-714.48 83,-687.04 83,-662.04"/>
<polygon fill="#7b8894" stroke="#7b8894" points="86.5,-662.26 83,-652.26 79.5,-662.26 86.5,-662.26"/>
</g>
<!-- 903d80aa3a914af1bb93208560aa0e42 -->
<g id="node12" class="node">
<title>903d80aa3a914af1bb93208560aa0e42</title>
<image xlink:href="/Users/oldroot/.agents/skills/architecture-diagrams/.venv/lib/python3.14/site-packages/resources/generic/place/datacenter.png" width="100.8px" height="100.8px" preserveAspectRatio="xMinYMin meet" x="32.6" y="-382"/>
<text xml:space="preserve" text-anchor="middle" x="83" y="-264.35" font-family="Sans-Serif" font-size="13.00" fill="#2d3436">host&#45;local health check</text>
</g>
<!-- 2701a539b1f74fafb831948476786452&#45;&gt;903d80aa3a914af1bb93208560aa0e42 -->
<g id="edge3" class="edge">
<title>2701a539b1f74fafb831948476786452&#45;&gt;903d80aa3a914af1bb93208560aa0e42</title>
<path fill="none" stroke="#7b8894" d="M83,-514.62C83,-482.64 83,-444.19 83,-410.88"/>
<polygon fill="#7b8894" stroke="#7b8894" points="86.5,-411.32 83,-401.32 79.5,-411.32 86.5,-411.32"/>
</g>
</g>
</svg>
