<?xml version="1.0" encoding="UTF-8" standalone="no"?>
<!DOCTYPE svg PUBLIC "-//W3C//DTD SVG 1.1//EN"
 "http://www.w3.org/Graphics/SVG/1.1/DTD/svg11.dtd">
<!-- Generated by graphviz version 14.1.3 (20260303.0454)
 -->
<!-- Title: mailservice&#45;system&#45;context Pages: 1 -->
<svg width="943pt" height="717pt"
 viewBox="0.00 0.00 943.00 717.00" xmlns="http://www.w3.org/2000/svg" xmlns:xlink="http://www.w3.org/1999/xlink">
<g id="graph0" class="graph" transform="scale(1 1) rotate(0) translate(36 680.7)">
<title>mailservice&#45;system&#45;context</title>
<polygon fill="#ffffff" stroke="none" points="-36,36 -36,-680.7 907.4,-680.7 907.4,36 -36,36"/>
<text xml:space="preserve" text-anchor="middle" x="435.7" y="-5.7" font-family="Sans-Serif" font-size="14.00" fill="#2d3436">mailservice&#45;system&#45;context</text>
<g id="clust1" class="cluster">
<title>cluster_mailservice</title>
<path fill="#e5f5fd" stroke="#aeb6be" d="M359.4,-279.85C359.4,-279.85 451.4,-279.85 451.4,-279.85 457.4,-279.85 463.4,-285.85 463.4,-291.85 463.4,-291.85 463.4,-441.4 463.4,-441.4 463.4,-447.4 457.4,-453.4 451.4,-453.4 451.4,-453.4 359.4,-453.4 359.4,-453.4 353.4,-453.4 347.4,-447.4 347.4,-441.4 347.4,-441.4 347.4,-291.85 347.4,-291.85 347.4,-285.85 353.4,-279.85 359.4,-279.85"/>
<text xml:space="preserve" text-anchor="middle" x="385.77" y="-438" font-family="Sans-Serif" font-size="12.00" fill="#2d3436">mailservice</text>
</g>
<g id="clust2" class="cluster">
<title>cluster_External systems</title>
<path fill="#e5f5fd" stroke="#aeb6be" d="M155.4,-31C155.4,-31 851.4,-31 851.4,-31 857.4,-31 863.4,-37 863.4,-43 863.4,-43 863.4,-221.35 863.4,-221.35 863.4,-227.35 857.4,-233.35 851.4,-233.35 851.4,-233.35 155.4,-233.35 155.4,-233.35 149.4,-233.35 143.4,-227.35 143.4,-221.35 143.4,-221.35 143.4,-43 143.4,-43 143.4,-37 149.4,-31 155.4,-31"/>
<text xml:space="preserve" text-anchor="middle" x="196.78" y="-217.95" font-family="Sans-Serif" font-size="12.00" fill="#2d3436">External systems</text>
</g>
<!-- b20d487ea58b44da88c57d2c7b1dd752 -->
<g id="node1" class="node">
<title>b20d487ea58b44da88c57d2c7b1dd752</title>
<image xlink:href="/Users/oldroot/.agents/skills/architecture-diagrams/.venv/lib/python3.14/site-packages/resources/generic/device/mobile.png" width="100.8px" height="100.8px" preserveAspectRatio="xMinYMin meet" x="280" y="-626.7"/>
<text xml:space="preserve" text-anchor="middle" x="330.4" y="-509.05" font-family="Sans-Serif" font-size="13.00" fill="#2d3436">Agent</text>
</g>
<!-- 9cc84b556a0d4055b901df85a51048eb -->
<g id="node4" class="node">
<title>9cc84b556a0d4055b901df85a51048eb</title>
<image xlink:href="/Users/oldroot/.agents/skills/architecture-diagrams/.venv/lib/python3.14/site-packages/resources/generic/place/datacenter.png" width="100.8px" height="100.8px" preserveAspectRatio="xMinYMin meet" x="355" y="-406.65"/>
<text xml:space="preserve" text-anchor="middle" x="405.4" y="-289" font-family="Sans-Serif" font-size="13.00" fill="#2d3436">Mailservice API</text>
</g>
<!-- b20d487ea58b44da88c57d2c7b1dd752&#45;&gt;9cc84b556a0d4055b901df85a51048eb -->
<g id="edge1" class="edge">
<title>b20d487ea58b44da88c57d2c7b1dd752&#45;&gt;9cc84b556a0d4055b901df85a51048eb</title>
<path fill="none" stroke="#7b8894" d="M323.32,-507.96C323.57,-492.38 325.4,-476.08 330.15,-461.4 334.43,-448.17 341.09,-435.21 348.71,-423.17"/>
<polygon fill="#7b8894" stroke="#7b8894" points="351.53,-425.24 354.16,-414.98 345.71,-421.36 351.53,-425.24"/>
<text xml:space="preserve" text-anchor="middle" x="374.77" y="-462.55" font-family="Sans-Serif" font-size="13.00" fill="#2d3436">claim + resolve</text>
</g>
<!-- 1e935d436a434dd78881067114d25d08 -->
<g id="node2" class="node">
<title>1e935d436a434dd78881067114d25d08</title>
<image xlink:href="/Users/oldroot/.agents/skills/architecture-diagrams/.venv/lib/python3.14/site-packages/resources/generic/storage/storage.png" width="100.8px" height="100.8px" preserveAspectRatio="xMinYMin meet" x="0" y="-172.2"/>
<text xml:space="preserve" text-anchor="middle" x="50.4" y="-54.55" font-family="Sans-Serif" font-size="13.00" fill="#2d3436">Billing inbox</text>
</g>
<!-- ff44cc37b1a6412e8b9e696185fa5830 -->
<g id="node3" class="node">
<title>ff44cc37b1a6412e8b9e696185fa5830</title>
<image xlink:href="/Users/oldroot/.agents/skills/architecture-diagrams/.venv/lib/python3.14/site-packages/resources/generic/compute/rack.png" width="100.8px" height="100.8px" preserveAspectRatio="xMinYMin meet" x="431" y="-626.7"/>
<text xml:space="preserve" text-anchor="middle" x="481.4" y="-509.05" font-family="Sans-Serif" font-size="13.00" fill="#2d3436">Operator</text>
</g>
<!-- ff44cc37b1a6412e8b9e696185fa5830&#45;&gt;9cc84b556a0d4055b901df85a51048eb -->
<g id="edge3" class="edge">
<title>ff44cc37b1a6412e8b9e696185fa5830&#45;&gt;9cc84b556a0d4055b901df85a51048eb</title>
<path fill="none" stroke="#7b8894" d="M457.98,-508.1C449.96,-485.09 440.92,-459.16 432.63,-435.37"/>
<polygon fill="#7b8894" stroke="#7b8894" points="435.97,-434.32 429.37,-426.03 429.36,-436.63 435.97,-434.32"/>
<text xml:space="preserve" text-anchor="middle" x="500.8" y="-462.55" font-family="Sans-Serif" font-size="13.00" fill="#2d3436">deploy + configure</text>
</g>
<!-- 9cc84b556a0d4055b901df85a51048eb&#45;&gt;1e935d436a434dd78881067114d25d08 -->
<g id="edge2" class="edge">
<title>9cc84b556a0d4055b901df85a51048eb&#45;&gt;1e935d436a434dd78881067114d25d08</title>
<path fill="none" stroke="#7b8894" d="M355.14,-344.2C295.11,-328.7 194.89,-295.21 131.4,-233.35 120.7,-222.93 110.38,-210.97 100.9,-198.86"/>
<polygon fill="#7b8894" stroke="#7b8894" points="103.92,-197.05 95.06,-191.23 98.36,-201.3 103.92,-197.05"/>
<text xml:space="preserve" text-anchor="middle" x="193.27" y="-242.5" font-family="Sans-Serif" font-size="13.00" fill="#2d3436">payment link</text>
</g>
<!-- 7c5aa76a48934f028ab62253f9bdc66d -->
<g id="node5" class="node">
<title>7c5aa76a48934f028ab62253f9bdc66d</title>
<image xlink:href="/Users/oldroot/.agents/skills/architecture-diagrams/.venv/lib/python3.14/site-packages/resources/generic/compute/rack.png" width="100.8px" height="100.8px" preserveAspectRatio="xMinYMin meet" x="151" y="-172.2"/>
<text xml:space="preserve" text-anchor="middle" x="201.4" y="-54.55" font-family="Sans-Serif" font-size="13.00" fill="#2d3436">Polar</text>
</g>
<!-- 9cc84b556a0d4055b901df85a51048eb&#45;&gt;7c5aa76a48934f028ab62253f9bdc66d -->
<g id="edge4" class="edge">
<title>9cc84b556a0d4055b901df85a51048eb&#45;&gt;7c5aa76a48934f028ab62253f9bdc66d</title>
<path fill="none" stroke="#7b8894" d="M355.01,-330.35C323.79,-312.81 284.75,-286.8 258.4,-254.85 245.26,-238.92 234.67,-219.5 226.34,-200.52"/>
<polygon fill="#7b8894" stroke="#7b8894" points="229.63,-199.3 222.53,-191.43 223.17,-202.01 229.63,-199.3"/>
<text xml:space="preserve" text-anchor="middle" x="285.4" y="-242.5" font-family="Sans-Serif" font-size="13.00" fill="#2d3436">checkout</text>
</g>
<!-- a7b0d09c29114bcab6d239102f958dd6 -->
<g id="node6" class="node">
<title>a7b0d09c29114bcab6d239102f958dd6</title>
<image xlink:href="/Users/oldroot/.agents/skills/architecture-diagrams/.venv/lib/python3.14/site-packages/resources/generic/compute/rack.png" width="100.8px" height="100.8px" preserveAspectRatio="xMinYMin meet" x="302" y="-172.2"/>
<text xml:space="preserve" text-anchor="middle" x="352.4" y="-54.55" font-family="Sans-Serif" font-size="13.00" fill="#2d3436">Stripe (legacy)</text>
</g>
<!-- 9cc84b556a0d4055b901df85a51048eb&#45;&gt;a7b0d09c29114bcab6d239102f958dd6 -->
<g id="edge5" class="edge">
<title>9cc84b556a0d4055b901df85a51048eb&#45;&gt;a7b0d09c29114bcab6d239102f958dd6</title>
<path fill="none" stroke="#7b8894" d="M355.11,-304.24C343.61,-289.47 332.99,-272.53 326.9,-254.85 321.04,-237.84 321.02,-219.1 323.85,-201.22"/>
<polygon fill="#7b8894" stroke="#7b8894" points="327.29,-201.89 325.74,-191.41 320.41,-200.57 327.29,-201.89"/>
<text xml:space="preserve" text-anchor="middle" x="371.15" y="-242.5" font-family="Sans-Serif" font-size="13.00" fill="#2d3436">legacy fallback</text>
</g>
<!-- f6dfd6ceff3448869ba056bb63716bd4 -->
<g id="node7" class="node">
<title>f6dfd6ceff3448869ba056bb63716bd4</title>
<image xlink:href="/Users/oldroot/.agents/skills/architecture-diagrams/.venv/lib/python3.14/site-packages/resources/generic/compute/rack.png" width="100.8px" height="100.8px" preserveAspectRatio="xMinYMin meet" x="453" y="-172.2"/>
<text xml:space="preserve" text-anchor="middle" x="503.4" y="-54.55" font-family="Sans-Serif" font-size="13.00" fill="#2d3436">Resend / SendGrid / Unsend</text>
</g>
<!-- 9cc84b556a0d4055b901df85a51048eb&#45;&gt;f6dfd6ceff3448869ba056bb63716bd4 -->
<g id="edge6" class="edge">
<title>9cc84b556a0d4055b901df85a51048eb&#45;&gt;f6dfd6ceff3448869ba056bb63716bd4</title>
<path fill="none" stroke="#7b8894" d="M433.75,-288.02C445.33,-260.55 458.79,-228.62 470.78,-200.18"/>
<polygon fill="#7b8894" stroke="#7b8894" points="473.87,-201.85 474.53,-191.28 467.42,-199.13 473.87,-201.85"/>
<text xml:space="preserve" text-anchor="middle" x="503.59" y="-242.5" font-family="Sans-Serif" font-size="13.00" fill="#2d3436">send notifications</text>
</g>
<!-- 7935c2e4f6f3462b8376ac3d7700a319 -->
<g id="node8" class="node">
<title>7935c2e4f6f3462b8376ac3d7700a319</title>
<image xlink:href="/Users/oldroot/.agents/skills/architecture-diagrams/.venv/lib/python3.14/site-packages/resources/generic/place/datacenter.png" width="100.8px" height="100.8px" preserveAspectRatio="xMinYMin meet" x="604" y="-172.2"/>
<text xml:space="preserve" text-anchor="middle" x="654.4" y="-53.65" font-family="Sans-Serif" font-size="13.00" fill="#2d3436">Mail runtime</text>
<text xml:space="preserve" text-anchor="middle" x="654.4" y="-40.15" font-family="Sans-Serif" font-size="13.00" fill="#2d3436">Postfix + Dovecot</text>
</g>
<!-- 9cc84b556a0d4055b901df85a51048eb&#45;&gt;7935c2e4f6f3462b8376ac3d7700a319 -->
<g id="edge7" class="edge">
<title>9cc84b556a0d4055b901df85a51048eb&#45;&gt;7935c2e4f6f3462b8376ac3d7700a319</title>
<path fill="none" stroke="#7b8894" d="M455.69,-331.41C489.83,-313.57 534.55,-286.8 567.4,-254.85 579.95,-242.64 591.64,-228.33 602.13,-213.71"/>
<polygon fill="#7b8894" stroke="#7b8894" points="604.78,-216.02 607.64,-205.82 599.04,-212.02 604.78,-216.02"/>
<text xml:space="preserve" text-anchor="middle" x="644.84" y="-242.5" font-family="Sans-Serif" font-size="13.00" fill="#2d3436">provision + IMAP read</text>
</g>
<!-- 8eca29aaf0c547c38d2f2dbcf763bcae -->
<g id="node9" class="node">
<title>8eca29aaf0c547c38d2f2dbcf763bcae</title>
<image xlink:href="/Users/oldroot/.agents/skills/architecture-diagrams/.venv/lib/python3.14/site-packages/resources/generic/network/firewall.png" width="100.8px" height="100.8px" preserveAspectRatio="xMinYMin meet" x="755" y="-172.2"/>
<text xml:space="preserve" text-anchor="middle" x="805.4" y="-54.55" font-family="Sans-Serif" font-size="13.00" fill="#2d3436">Cloudflare Tunnel</text>
</g>
<!-- 8eca29aaf0c547c38d2f2dbcf763bcae&#45;&gt;9cc84b556a0d4055b901df85a51048eb -->
<g id="edge8" class="edge">
<title>8eca29aaf0c547c38d2f2dbcf763bcae&#45;&gt;9cc84b556a0d4055b901df85a51048eb</title>
<path fill="none" stroke="#7b8894" d="M775.35,-189.98C762.04,-213.32 744.36,-237.87 722.4,-254.85 646.37,-313.64 535.16,-338.42 466.69,-348.57"/>
<polygon fill="#7b8894" stroke="#7b8894" points="466.57,-345.05 457.16,-349.92 467.55,-351.98 466.57,-345.05"/>
<text xml:space="preserve" text-anchor="middle" x="776.3" y="-242.5" font-family="Sans-Serif" font-size="13.00" fill="#2d3436">public ingress</text>
</g>
</g>
</svg>
