<?xml version="1.0" encoding="UTF-8" standalone="no"?>
<!DOCTYPE svg PUBLIC "-//W3C//DTD SVG 1.1//EN"
 "http://www.w3.org/Graphics/SVG/1.1/DTD/svg11.dtd">
<!-- Generated by graphviz version 14.1.4 (20260321.0153)
 -->
<!-- Title: mailservice&#45;system&#45;context Pages: 1 -->
<svg width="1282pt" height="717pt"
 viewBox="0.00 0.00 1282.00 717.00" xmlns="http://www.w3.org/2000/svg" xmlns:xlink="http://www.w3.org/1999/xlink">
<g id="graph0" class="graph" transform="scale(1 1) rotate(0) translate(36 680.7)">
<title>mailservice&#45;system&#45;context</title>
<polygon fill="#ffffff" stroke="none" points="-36,36 -36,-680.7 1245.93,-680.7 1245.93,36 -36,36"/>
<text xml:space="preserve" text-anchor="middle" x="604.96" y="-5.7" font-family="Sans-Serif" font-size="14.00" fill="#2d3436">mailservice&#45;system&#45;context</text>
<g id="clust1" class="cluster">
<title>cluster_Product boundary: mailservice</title>
<path fill="#e5f5fd" stroke="#aeb6be" d="M593.53,-279.85C593.53,-279.85 746.53,-279.85 746.53,-279.85 752.53,-279.85 758.53,-285.85 758.53,-291.85 758.53,-291.85 758.53,-441.4 758.53,-441.4 758.53,-447.4 752.53,-453.4 746.53,-453.4 746.53,-453.4 593.53,-453.4 593.53,-453.4 587.53,-453.4 581.53,-447.4 581.53,-441.4 581.53,-441.4 581.53,-291.85 581.53,-291.85 581.53,-285.85 587.53,-279.85 593.53,-279.85"/>
<text xml:space="preserve" text-anchor="middle" x="670.15" y="-438" font-family="Sans-Serif" font-size="12.00" fill="#2d3436">Product boundary: mailservice</text>
</g>
<g id="clust2" class="cluster">
<title>cluster_External systems</title>
<path fill="#e5f5fd" stroke="#aeb6be" d="M318.53,-31C318.53,-31 1014.53,-31 1014.53,-31 1020.53,-31 1026.53,-37 1026.53,-43 1026.53,-43 1026.53,-221.35 1026.53,-221.35 1026.53,-227.35 1020.53,-233.35 1014.53,-233.35 1014.53,-233.35 318.53,-233.35 318.53,-233.35 312.53,-233.35 306.53,-227.35 306.53,-221.35 306.53,-221.35 306.53,-43 306.53,-43 306.53,-37 312.53,-31 318.53,-31"/>
<text xml:space="preserve" text-anchor="middle" x="359.9" y="-217.95" font-family="Sans-Serif" font-size="12.00" fill="#2d3436">External systems</text>
</g>
<!-- 29a9e1a14cb3455aa395d8c7e466052f -->
<g id="node1" class="node">
<title>29a9e1a14cb3455aa395d8c7e466052f</title>
<image xlink:href="/Users/oldroot/.agents/skills/architecture-diagrams/.venv/lib/python3.14/site-packages/resources/generic/device/mobile.png" width="100.8px" height="100.8px" preserveAspectRatio="xMinYMin meet" x="41.1283" y="-406.65"/>
<text xml:space="preserve" text-anchor="middle" x="91.53" y="-289" font-family="Sans-Serif" font-size="13.00" fill="#2d3436">Agent</text>
</g>
<!-- 8ebabe1a6965476a8fe8402a916a6c02 -->
<g id="node5" class="node">
<title>8ebabe1a6965476a8fe8402a916a6c02</title>
<image xlink:href="/Users/oldroot/.agents/skills/architecture-diagrams/.venv/lib/python3.14/site-packages/resources/generic/network/firewall.png" width="100.8px" height="100.8px" preserveAspectRatio="xMinYMin meet" x="465.128" y="-172.2"/>
<text xml:space="preserve" text-anchor="middle" x="515.53" y="-54.55" font-family="Sans-Serif" font-size="13.00" fill="#2d3436">Cloudflare Tunnel</text>
</g>
<!-- 29a9e1a14cb3455aa395d8c7e466052f&#45;&gt;8ebabe1a6965476a8fe8402a916a6c02 -->
<g id="edge1" class="edge">
<title>29a9e1a14cb3455aa395d8c7e466052f&#45;&gt;8ebabe1a6965476a8fe8402a916a6c02</title>
<path fill="none" stroke="#7b8894" d="M141.71,-305.39C169.33,-281.34 205.63,-254.84 243.53,-241.35 264.06,-234.04 420.45,-243.89 439.53,-233.35 454.33,-225.17 466.85,-212.75 477.19,-199.13"/>
<polygon fill="#7b8894" stroke="#7b8894" points="479.83,-201.45 482.79,-191.28 474.13,-197.39 479.83,-201.45"/>
<text xml:space="preserve" text-anchor="middle" x="315.53" y="-242.5" font-family="Sans-Serif" font-size="13.00" fill="#2d3436">claim + resolve API calls</text>
</g>
<!-- 4e79c73b37c345d5b30423da4bb2a1ad -->
<g id="node2" class="node">
<title>4e79c73b37c345d5b30423da4bb2a1ad</title>
<image xlink:href="/Users/oldroot/.agents/skills/architecture-diagrams/.venv/lib/python3.14/site-packages/resources/generic/storage/storage.png" width="100.8px" height="100.8px" preserveAspectRatio="xMinYMin meet" x="1109.13" y="-172.2"/>
<text xml:space="preserve" text-anchor="middle" x="1159.53" y="-54.55" font-family="Sans-Serif" font-size="13.00" fill="#2d3436">Billing inbox</text>
</g>
<!-- d3ddc219952e49b5993954b4ed40d193 -->
<g id="node3" class="node">
<title>d3ddc219952e49b5993954b4ed40d193</title>
<image xlink:href="/Users/oldroot/.agents/skills/architecture-diagrams/.venv/lib/python3.14/site-packages/resources/generic/compute/rack.png" width="100.8px" height="100.8px" preserveAspectRatio="xMinYMin meet" x="620.128" y="-626.7"/>
<text xml:space="preserve" text-anchor="middle" x="670.53" y="-509.05" font-family="Sans-Serif" font-size="13.00" fill="#2d3436">Operator</text>
</g>
<!-- d35d191f8a964a839272911d56d5e984 -->
<g id="node4" class="node">
<title>d35d191f8a964a839272911d56d5e984</title>
<image xlink:href="/Users/oldroot/.agents/skills/architecture-diagrams/.venv/lib/python3.14/site-packages/resources/generic/place/datacenter.png" width="100.8px" height="100.8px" preserveAspectRatio="xMinYMin meet" x="620.128" y="-406.65"/>
<text xml:space="preserve" text-anchor="middle" x="670.53" y="-289" font-family="Sans-Serif" font-size="13.00" fill="#2d3436">Mailservice API</text>
</g>
<!-- d3ddc219952e49b5993954b4ed40d193&#45;&gt;d35d191f8a964a839272911d56d5e984 -->
<g id="edge5" class="edge">
<title>d3ddc219952e49b5993954b4ed40d193&#45;&gt;d35d191f8a964a839272911d56d5e984</title>
<path fill="none" stroke="#7b8894" d="M670.53,-508.1C670.53,-485.3 670.53,-459.63 670.53,-436.01"/>
<polygon fill="#7b8894" stroke="#7b8894" points="674.03,-436.12 670.53,-426.12 667.03,-436.12 674.03,-436.12"/>
<text xml:space="preserve" text-anchor="middle" x="725.65" y="-462.55" font-family="Sans-Serif" font-size="13.00" fill="#2d3436">deploy + configure</text>
</g>
<!-- d35d191f8a964a839272911d56d5e984&#45;&gt;4e79c73b37c345d5b30423da4bb2a1ad -->
<g id="edge3" class="edge">
<title>d35d191f8a964a839272911d56d5e984&#45;&gt;4e79c73b37c345d5b30423da4bb2a1ad</title>
<path fill="none" stroke="#7b8894" d="M720.91,-350.57C795.41,-341.74 937.19,-317.51 1039.53,-254.85 1063.44,-240.21 1085.45,-219.41 1103.91,-198.64"/>
<polygon fill="#7b8894" stroke="#7b8894" points="1106.44,-201.06 1110.34,-191.21 1101.15,-196.48 1106.44,-201.06"/>
<text xml:space="preserve" text-anchor="middle" x="1092.95" y="-242.5" font-family="Sans-Serif" font-size="13.00" fill="#2d3436">payment link</text>
</g>
<!-- 42c249e4ef5e4da19c5b00239f291cfc -->
<g id="node6" class="node">
<title>42c249e4ef5e4da19c5b00239f291cfc</title>
<image xlink:href="/Users/oldroot/.agents/skills/architecture-diagrams/.venv/lib/python3.14/site-packages/resources/generic/compute/rack.png" width="100.8px" height="100.8px" preserveAspectRatio="xMinYMin meet" x="314.128" y="-172.2"/>
<text xml:space="preserve" text-anchor="middle" x="364.53" y="-54.55" font-family="Sans-Serif" font-size="13.00" fill="#2d3436">Paddle</text>
</g>
<!-- d35d191f8a964a839272911d56d5e984&#45;&gt;42c249e4ef5e4da19c5b00239f291cfc -->
<g id="edge6" class="edge">
<title>d35d191f8a964a839272911d56d5e984&#45;&gt;42c249e4ef5e4da19c5b00239f291cfc</title>
<path fill="none" stroke="#7b8894" d="M620.29,-348.83C561.94,-338.8 466.41,-313.98 409.53,-254.85 395.22,-239.98 385.45,-220.37 378.78,-200.83"/>
<polygon fill="#7b8894" stroke="#7b8894" points="382.18,-199.96 375.84,-191.46 375.5,-202.05 382.18,-199.96"/>
<text xml:space="preserve" text-anchor="middle" x="436.53" y="-242.5" font-family="Sans-Serif" font-size="13.00" fill="#2d3436">checkout</text>
</g>
<!-- d17a656c0bad4deeae40fb119e9485a1 -->
<g id="node7" class="node">
<title>d17a656c0bad4deeae40fb119e9485a1</title>
<image xlink:href="/Users/oldroot/.agents/skills/architecture-diagrams/.venv/lib/python3.14/site-packages/resources/generic/compute/rack.png" width="100.8px" height="100.8px" preserveAspectRatio="xMinYMin meet" x="616.128" y="-172.2"/>
<text xml:space="preserve" text-anchor="middle" x="666.53" y="-54.55" font-family="Sans-Serif" font-size="13.00" fill="#2d3436">Stripe (legacy fallback)</text>
</g>
<!-- d35d191f8a964a839272911d56d5e984&#45;&gt;d17a656c0bad4deeae40fb119e9485a1 -->
<g id="edge7" class="edge">
<title>d35d191f8a964a839272911d56d5e984&#45;&gt;d17a656c0bad4deeae40fb119e9485a1</title>
<path fill="none" stroke="#7b8894" d="M665.57,-288.04C664.93,-276.96 664.38,-265.59 664.03,-254.85 663.47,-237.55 663.46,-218.98 663.72,-201.38"/>
<polygon fill="#7b8894" stroke="#7b8894" points="667.21,-201.56 663.9,-191.5 660.22,-201.43 667.21,-201.56"/>
<text xml:space="preserve" text-anchor="middle" x="708.28" y="-242.5" font-family="Sans-Serif" font-size="13.00" fill="#2d3436">legacy fallback</text>
</g>
<!-- 4638a79a97b44d3fb576b065e6317c38 -->
<g id="node8" class="node">
<title>4638a79a97b44d3fb576b065e6317c38</title>
<image xlink:href="/Users/oldroot/.agents/skills/architecture-diagrams/.venv/lib/python3.14/site-packages/resources/generic/compute/rack.png" width="100.8px" height="100.8px" preserveAspectRatio="xMinYMin meet" x="767.128" y="-172.2"/>
<text xml:space="preserve" text-anchor="middle" x="817.53" y="-53.65" font-family="Sans-Serif" font-size="13.00" fill="#2d3436">Unsend / Resend /</text>
<text xml:space="preserve" text-anchor="middle" x="817.53" y="-40.15" font-family="Sans-Serif" font-size="13.00" fill="#2d3436">SendGrid / Mailgun</text>
</g>
<!-- d35d191f8a964a839272911d56d5e984&#45;&gt;4638a79a97b44d3fb576b065e6317c38 -->
<g id="edge8" class="edge">
<title>d35d191f8a964a839272911d56d5e984&#45;&gt;4638a79a97b44d3fb576b065e6317c38</title>
<path fill="none" stroke="#7b8894" d="M720.89,-305.48C734.84,-290.08 749.24,-272.5 760.53,-254.85 768.54,-242.33 775.91,-228.48 782.5,-214.61"/>
<polygon fill="#7b8894" stroke="#7b8894" points="785.51,-216.45 786.53,-205.9 779.16,-213.51 785.51,-216.45"/>
<text xml:space="preserve" text-anchor="middle" x="820.69" y="-242.5" font-family="Sans-Serif" font-size="13.00" fill="#2d3436">send notifications</text>
</g>
<!-- 1098f8172b1e45e9846e3f279f68a1b0 -->
<g id="node9" class="node">
<title>1098f8172b1e45e9846e3f279f68a1b0</title>
<image xlink:href="/Users/oldroot/.agents/skills/architecture-diagrams/.venv/lib/python3.14/site-packages/resources/generic/place/datacenter.png" width="100.8px" height="100.8px" preserveAspectRatio="xMinYMin meet" x="918.128" y="-172.2"/>
<text xml:space="preserve" text-anchor="middle" x="968.53" y="-53.65" font-family="Sans-Serif" font-size="13.00" fill="#2d3436">Mail runtime</text>
<text xml:space="preserve" text-anchor="middle" x="968.53" y="-40.15" font-family="Sans-Serif" font-size="13.00" fill="#2d3436">Postfix + Dovecot</text>
</g>
<!-- d35d191f8a964a839272911d56d5e984&#45;&gt;1098f8172b1e45e9846e3f279f68a1b0 -->
<g id="edge9" class="edge">
<title>d35d191f8a964a839272911d56d5e984&#45;&gt;1098f8172b1e45e9846e3f279f68a1b0</title>
<path fill="none" stroke="#7b8894" d="M720.53,-340.76C767.07,-325.35 836.31,-297.27 884.53,-254.85 897.87,-243.11 909.89,-228.75 920.37,-213.87"/>
<polygon fill="#7b8894" stroke="#7b8894" points="923.12,-216.04 925.85,-205.81 917.34,-212.11 923.12,-216.04"/>
<text xml:space="preserve" text-anchor="middle" x="962.29" y="-242.5" font-family="Sans-Serif" font-size="13.00" fill="#2d3436">provision + IMAP read</text>
</g>
<!-- 8ebabe1a6965476a8fe8402a916a6c02&#45;&gt;d35d191f8a964a839272911d56d5e984 -->
<g id="edge2" class="edge">
<title>8ebabe1a6965476a8fe8402a916a6c02&#45;&gt;d35d191f8a964a839272911d56d5e984</title>
<path fill="none" stroke="#7b8894" d="M478.67,-189.9C471.69,-211.69 469.76,-235.27 481.53,-254.85 509.06,-300.65 565.3,-326.67 609.31,-340.69"/>
<polygon fill="#7b8894" stroke="#7b8894" points="608.18,-344 618.76,-343.56 610.21,-337.31 608.18,-344"/>
</g>
<!-- 8ebabe1a6965476a8fe8402a916a6c02&#45;&gt;d35d191f8a964a839272911d56d5e984 -->
<g id="edge10" class="edge">
<title>8ebabe1a6965476a8fe8402a916a6c02&#45;&gt;d35d191f8a964a839272911d56d5e984</title>
<path fill="none" stroke="#7b8894" d="M536.67,-189.91C545.04,-211.58 555.86,-235.09 569.03,-254.85 581.09,-272.94 596.8,-290.42 612.24,-305.58"/>
<polygon fill="#7b8894" stroke="#7b8894" points="609.54,-307.85 619.18,-312.25 614.39,-302.8 609.54,-307.85"/>
<text xml:space="preserve" text-anchor="middle" x="610.28" y="-242.5" font-family="Sans-Serif" font-size="13.00" fill="#2d3436">public ingress</text>
</g>
<!-- 42c249e4ef5e4da19c5b00239f291cfc&#45;&gt;29a9e1a14cb3455aa395d8c7e466052f -->
<g id="edge4" class="edge">
<title>42c249e4ef5e4da19c5b00239f291cfc&#45;&gt;29a9e1a14cb3455aa395d8c7e466052f</title>
<path fill="none" stroke="#7b8894" d="M314.31,-122.46C233.93,-124.97 78.22,-143.06 7.28,-241.35 -10.43,-265.88 8.33,-293.13 32.6,-314.83"/>
<polygon fill="#7b8894" stroke="#7b8894" points="30.32,-317.48 40.21,-321.28 34.84,-312.14 30.32,-317.48"/>
<text xml:space="preserve" text-anchor="middle" x="56.4" y="-242.5" font-family="Sans-Serif" font-size="13.00" fill="#2d3436">hosted checkout</text>
</g>
</g>
</svg>
